<svg width="1017" height="479" viewBox="0 0 1017 479" fill="none" xmlns="http://www.w3.org/2000/svg">
<rect width="1017" height="479" fill="#FFC233"/>
<path d="M391.996 402.992C391.94 402.88 391.847 402.768 391.716 402.656C391.604 402.525 391.548 402.441 391.548 402.404C391.548 402.199 391.501 402.04 391.408 401.928C391.371 401.891 391.352 401.807 391.352 401.676C391.352 401.377 391.492 400.873 391.772 400.164C392.071 399.436 392.453 398.652 392.92 397.812C393.032 397.7 393.172 397.504 393.34 397.224C393.527 396.944 393.648 396.785 393.704 396.748C393.704 396.673 393.732 396.608 393.788 396.552C393.844 396.477 393.909 396.44 393.984 396.44V396.272C393.984 396.104 394.292 395.703 394.908 395.068C395.524 394.415 396.028 393.967 396.42 393.724C396.887 393.407 397.363 393.248 397.848 393.248C398.184 393.248 398.473 393.341 398.716 393.528C398.809 393.64 399.239 394.041 400.004 394.732L401.04 395.656L400.536 397.056C400.368 397.56 400.284 398.017 400.284 398.428C400.284 399.137 400.489 399.819 400.9 400.472C400.993 400.677 401.18 400.873 401.46 401.06C401.74 401.247 402.02 401.359 402.3 401.396C402.711 401.471 402.916 401.676 402.916 402.012C402.916 402.385 402.748 402.609 402.412 402.684C402.337 402.703 402.225 402.712 402.076 402.712C400.975 402.712 400.023 401.937 399.22 400.388C399.145 400.276 399.043 400.071 398.912 399.772C398.8 399.473 398.735 399.268 398.716 399.156C398.604 399.305 398.464 399.483 398.296 399.688C398.128 399.893 397.969 400.071 397.82 400.22C395.785 402.255 394.18 403.272 393.004 403.272C392.631 403.272 392.295 403.179 391.996 402.992ZM393.004 401.424C393.004 401.517 393.097 401.545 393.284 401.508C393.489 401.471 393.732 401.377 394.012 401.228C394.311 401.079 394.609 400.883 394.908 400.64C396.513 399.259 397.671 398.055 398.38 397.028L398.996 396.02C398.809 395.628 398.613 395.348 398.408 395.18C398.203 394.993 398.016 394.9 397.848 394.9C397.456 394.9 396.84 395.395 396 396.384C395.16 397.355 394.395 398.503 393.704 399.828C393.536 400.145 393.387 400.472 393.256 400.808C393.125 401.125 393.041 401.331 393.004 401.424ZM413.935 402.712C413.561 402.712 413.253 402.637 413.011 402.488C412.768 402.32 412.563 402.049 412.395 401.676C412.227 401.079 412.143 400.481 412.143 399.884C412.143 399.604 412.171 399.408 412.227 399.296C412.301 399.221 412.329 399.063 412.311 398.82C412.311 398.559 412.311 398.372 412.311 398.26C412.292 397.831 412.161 397.616 411.919 397.616C411.751 397.616 411.564 397.681 411.359 397.812C410.313 398.465 409.436 399.025 408.727 399.492C408.017 399.959 407.336 400.481 406.683 401.06C406.421 401.359 406.225 401.62 406.095 401.844C405.964 402.068 405.871 402.227 405.815 402.32C405.759 402.395 405.684 402.432 405.591 402.432C405.479 402.469 405.404 402.488 405.367 402.488C405.273 402.488 405.161 402.441 405.031 402.348C404.9 402.236 404.816 402.161 404.779 402.124C404.704 402.049 404.583 401.928 404.415 401.76C404.247 401.573 404.153 401.443 404.135 401.368C404.135 401.219 404.191 400.873 404.303 400.332C404.433 399.791 404.536 399.445 404.611 399.296C404.667 399.296 404.751 399.184 404.863 398.96C404.975 398.717 405.077 398.531 405.171 398.4C405.227 398.12 405.469 397.476 405.899 396.468C406.16 396.02 406.337 395.647 406.431 395.348C406.543 395.049 406.617 394.676 406.655 394.228V394.172C406.655 394.097 406.683 394.041 406.739 394.004C406.795 393.948 406.851 393.92 406.907 393.92C407.037 393.827 407.159 393.78 407.271 393.78C407.513 393.78 407.756 393.929 407.999 394.228C408.279 394.583 408.419 394.956 408.419 395.348C408.419 395.833 408.111 396.599 407.495 397.644C407.439 397.775 407.355 397.961 407.243 398.204C407.149 398.447 407.103 398.615 407.103 398.708L408.671 397.644C408.82 397.476 409.221 397.177 409.875 396.748C410.528 396.319 410.985 396.076 411.247 396.02C411.695 395.815 411.975 395.712 412.087 395.712C412.311 395.712 412.609 395.88 412.983 396.216C413.375 396.552 413.608 396.832 413.683 397.056C413.683 397.261 413.701 397.411 413.739 397.504C413.832 397.877 413.879 398.316 413.879 398.82C413.879 399.156 413.851 399.464 413.795 399.744C413.757 400.005 413.701 400.155 413.627 400.192C413.627 400.211 413.636 400.239 413.655 400.276C413.673 400.313 413.711 400.332 413.767 400.332V400.472C413.617 400.472 413.599 400.631 413.711 400.948C413.823 401.265 413.972 401.508 414.159 401.676C414.345 401.863 414.439 402.049 414.439 402.236C414.439 402.46 414.271 402.619 413.935 402.712ZM423.796 403.72C423.479 403.72 423.255 403.627 423.124 403.44C422.9 403.16 422.741 402.936 422.648 402.768C422.573 402.581 422.536 402.367 422.536 402.124C422.536 401.919 422.545 401.751 422.564 401.62L422.676 400.332C422.639 400.295 422.564 400.304 422.452 400.36C422.359 400.416 422.265 400.481 422.172 400.556C422.097 400.631 422.023 400.696 421.948 400.752L421.472 401.144C420.651 402.077 419.932 402.74 419.316 403.132C418.719 403.524 418.159 403.72 417.636 403.72L417.328 403.692C416.936 403.655 416.647 403.468 416.46 403.132C416.273 402.777 416.18 402.329 416.18 401.788C416.18 401.508 416.189 401.303 416.208 401.172C416.283 400.519 416.423 399.912 416.628 399.352C416.833 398.792 417.151 398.185 417.58 397.532C417.897 396.972 418.355 396.431 418.952 395.908C419.568 395.385 420.175 395.021 420.772 394.816C421.332 394.611 421.855 394.508 422.34 394.508C422.657 394.508 422.975 394.555 423.292 394.648C423.516 394.76 423.693 394.816 423.824 394.816C423.973 394.816 424.085 394.723 424.16 394.536C424.235 394.424 424.319 394.219 424.412 393.92C424.561 393.509 424.683 393.22 424.776 393.052L425.392 391.232L426.12 389.496L426.932 387.592C427.305 386.845 427.623 386.472 427.884 386.472C428.033 386.472 428.211 386.575 428.416 386.78C428.584 386.967 428.668 387.172 428.668 387.396C428.668 387.583 428.612 387.816 428.5 388.096C428.407 388.376 428.285 388.703 428.136 389.076C427.893 389.468 427.651 389.935 427.408 390.476L426.988 391.428C426.484 392.623 426.185 393.341 426.092 393.584L425.868 394.34C425.7 394.863 425.579 395.311 425.504 395.684C425.355 396.487 425.224 396.888 425.112 396.888C424.776 397.243 424.459 398.344 424.16 400.192C424.085 400.64 424.048 401.499 424.048 402.768C424.048 403.197 424.029 403.468 423.992 403.58C423.973 403.673 423.908 403.72 423.796 403.72ZM417.832 401.956C418.187 401.956 418.551 401.825 418.924 401.564C419.316 401.284 419.811 400.873 420.408 400.332C420.912 399.847 421.519 399.091 422.228 398.064C422.937 397.037 423.292 396.44 423.292 396.272C423.292 396.197 423.199 396.132 423.012 396.076C422.825 396.02 422.62 395.992 422.396 395.992C422.247 395.992 422.097 396.011 421.948 396.048C421.519 396.141 421.099 396.337 420.688 396.636C420.296 396.916 419.876 397.327 419.428 397.868C418.905 398.521 418.476 399.212 418.14 399.94C417.804 400.668 417.636 401.228 417.636 401.62C417.636 401.844 417.701 401.956 417.832 401.956ZM447.674 401.564C447.748 401.62 447.786 401.704 447.786 401.816C447.786 401.947 447.739 402.077 447.646 402.208C447.571 402.32 447.496 402.376 447.422 402.376C447.067 402.376 446.722 402.283 446.386 402.096C446.068 401.891 445.91 401.573 445.91 401.144V399.408C445.91 398.531 445.844 398.036 445.714 397.924C445.434 397.775 444.948 398.083 444.258 398.848C443.586 399.613 442.932 400.519 442.298 401.564C442.092 401.9 441.924 402.161 441.794 402.348C441.663 402.535 441.56 402.628 441.486 402.628C441.43 402.628 441.336 402.581 441.206 402.488C440.627 402.32 440.338 401.993 440.338 401.508C440.338 401.452 440.356 401.331 440.394 401.144C440.58 400.528 440.767 399.847 440.954 399.1C441.14 398.335 441.29 397.691 441.402 397.168C441.346 397.056 441.252 397 441.122 397C440.935 397 440.72 397.093 440.478 397.28C440.011 397.597 439.414 398.353 438.686 399.548C437.771 400.948 437.136 401.797 436.782 402.096C436.651 402.32 436.53 402.497 436.418 402.628C436.324 402.74 436.231 402.796 436.138 402.796C436.063 402.796 435.923 402.74 435.718 402.628C435.176 402.311 434.906 401.863 434.906 401.284C434.906 401.004 434.99 400.444 435.158 399.604C435.326 398.764 435.512 397.98 435.718 397.252C435.886 396.935 436.035 396.608 436.166 396.272C436.315 395.917 436.39 395.703 436.39 395.628C436.464 395.236 436.558 394.816 436.67 394.368C436.782 393.92 436.866 393.668 436.922 393.612C437.052 393.481 437.202 393.416 437.37 393.416C437.65 393.416 437.855 393.565 437.986 393.864C438.191 394.069 438.294 394.331 438.294 394.648C438.294 395.003 438.191 395.46 437.986 396.02C437.668 396.711 437.323 397.719 436.95 399.044C437.342 398.615 437.622 398.279 437.79 398.036C438.238 397.401 438.816 396.692 439.526 395.908C440.104 395.273 440.758 394.956 441.486 394.956C442.344 395.105 442.839 395.824 442.97 397.112C442.97 397.336 442.951 397.616 442.914 397.952C442.876 398.269 442.848 398.475 442.83 398.568C442.904 398.456 443.091 398.213 443.39 397.84C443.707 397.467 444.09 397.084 444.538 396.692C444.948 396.375 445.331 396.216 445.686 396.216C445.984 396.216 446.246 396.337 446.47 396.58C446.862 396.804 447.142 397.121 447.31 397.532C447.478 397.924 447.562 398.428 447.562 399.044C447.562 399.361 447.552 399.613 447.534 399.8C447.496 400.173 447.478 400.407 447.478 400.5C447.478 400.855 447.543 401.209 447.674 401.564ZM453.01 402.936C452.73 402.992 452.524 403.02 452.394 403.02C452.282 403.02 452.188 403.001 452.114 402.964C452.039 402.908 451.936 402.815 451.806 402.684C451.395 402.479 451.068 402.189 450.826 401.816C450.602 401.424 450.508 401.079 450.546 400.78C450.62 399.921 450.863 398.979 451.274 397.952C451.703 396.925 452.207 396.02 452.786 395.236C453.364 394.452 453.924 393.967 454.466 393.78C454.802 393.649 455.082 393.584 455.306 393.584C455.754 393.584 456.071 393.771 456.258 394.144C456.388 394.405 456.454 394.601 456.454 394.732C456.454 394.956 456.323 395.105 456.062 395.18C456.006 395.18 455.94 395.208 455.866 395.264C455.791 395.32 455.754 395.376 455.754 395.432C455.772 395.451 455.856 395.46 456.006 395.46C456.323 395.46 456.715 395.413 457.182 395.32C457.648 395.227 457.947 395.124 458.078 395.012C458.19 394.956 458.283 394.928 458.358 394.928L458.75 394.984C459.067 395.077 459.226 395.189 459.226 395.32C459.226 395.395 459.254 395.469 459.31 395.544C459.366 395.6 459.431 395.628 459.506 395.628C459.618 395.647 459.599 395.721 459.45 395.852C459.319 395.983 459.058 396.197 458.666 396.496C458.572 396.552 458.432 396.636 458.246 396.748C458.078 396.86 457.975 396.953 457.938 397.028C457.919 397.103 457.928 397.205 457.966 397.336C458.04 397.504 458.078 397.709 458.078 397.952C458.078 398.568 457.807 399.249 457.266 399.996C456.743 400.743 456.08 401.396 455.278 401.956C454.494 402.516 453.738 402.843 453.01 402.936ZM452.534 401.704C452.646 401.704 452.926 401.592 453.374 401.368C453.616 401.125 453.812 400.976 453.962 400.92C454.092 400.92 454.27 400.827 454.494 400.64C454.718 400.435 455.063 400.033 455.53 399.436C455.884 399.025 456.146 398.68 456.314 398.4C456.5 398.12 456.594 397.849 456.594 397.588C456.594 397.476 456.584 397.392 456.566 397.336C456.547 397.28 456.482 397.233 456.37 397.196C456.276 397.14 456.183 397.093 456.09 397.056C455.922 397.056 455.763 397.019 455.614 396.944C455.483 396.851 455.287 396.701 455.026 396.496L454.578 395.936L454.102 396.412C453.654 396.86 453.196 397.597 452.73 398.624C452.263 399.632 452.002 400.416 451.946 400.976C451.927 401.237 451.964 401.424 452.058 401.536C452.17 401.629 452.328 401.685 452.534 401.704ZM460.473 403.02C460.323 402.908 460.221 402.805 460.165 402.712C460.109 402.619 460.081 402.479 460.081 402.292C460.081 402.124 460.09 401.984 460.109 401.872C460.165 401.237 460.305 400.5 460.529 399.66L460.669 399.1C460.725 398.633 461.051 397.653 461.649 396.16C462.246 394.667 462.731 393.649 463.105 393.108C463.254 393.015 463.413 392.968 463.581 392.968C463.823 392.968 464.029 393.052 464.197 393.22C464.309 393.295 464.365 393.435 464.365 393.64C464.365 393.827 464.29 394.107 464.141 394.48C464.01 394.835 463.777 395.367 463.441 396.076C463.366 396.225 463.235 396.505 463.049 396.916C462.881 397.327 462.797 397.569 462.797 397.644C462.797 397.681 462.806 397.7 462.825 397.7C462.862 397.7 462.899 397.691 462.937 397.672C462.974 397.635 463.011 397.607 463.049 397.588C463.254 397.233 463.749 396.748 464.533 396.132C465.335 395.516 465.886 395.133 466.185 394.984C466.315 394.909 466.483 394.835 466.689 394.76C466.894 394.685 467.034 394.629 467.109 394.592C467.407 394.443 467.762 394.368 468.173 394.368C468.434 394.368 468.658 394.415 468.845 394.508C469.05 394.583 469.19 394.704 469.265 394.872C469.283 395.003 469.33 395.105 469.405 395.18C469.498 395.255 469.563 395.301 469.601 395.32C469.657 395.32 469.694 395.348 469.713 395.404C469.731 395.441 469.741 395.469 469.741 395.488C469.741 395.619 469.666 395.703 469.517 395.74C469.367 395.759 469.097 395.777 468.705 395.796C468.499 395.815 468.285 395.861 468.061 395.936C467.837 396.011 467.613 396.104 467.389 396.216C466.343 396.813 465.559 397.28 465.037 397.616C464.533 397.952 464.019 398.409 463.497 398.988C463.291 399.212 463.021 399.613 462.685 400.192C462.554 400.323 462.414 400.668 462.265 401.228C462.134 401.769 462.069 402.105 462.069 402.236C462.05 402.292 462.013 402.404 461.957 402.572C461.901 402.721 461.817 402.871 461.705 403.02C461.481 403.319 461.294 403.468 461.145 403.468C460.977 403.468 460.753 403.319 460.473 403.02ZM471.99 403.328C471.393 403.085 470.973 402.777 470.73 402.404C470.488 402.012 470.366 401.471 470.366 400.78C470.366 400.444 470.394 400.052 470.45 399.604L470.506 398.596C470.506 398.428 470.488 398.297 470.45 398.204C470.413 398.111 470.329 398.008 470.198 397.896C470.161 397.859 470.068 397.765 469.918 397.616C469.769 397.467 469.704 397.345 469.722 397.252L469.694 397.112C469.694 396.981 469.713 396.86 469.75 396.748C469.806 396.636 469.862 396.58 469.918 396.58C469.974 396.58 470.049 396.571 470.142 396.552C470.236 396.515 470.32 396.505 470.394 396.524C470.656 396.524 470.786 396.58 470.786 396.692C470.861 396.841 470.982 396.86 471.15 396.748C471.337 396.617 471.514 396.375 471.682 396.02C471.944 395.609 472.326 395.18 472.83 394.732C473.353 394.265 473.782 393.939 474.118 393.752C474.249 393.677 474.464 393.612 474.762 393.556C475.061 393.481 475.322 393.444 475.546 393.444C475.882 393.444 476.172 393.519 476.414 393.668C476.676 393.817 476.937 394.032 477.198 394.312C477.553 394.573 477.73 394.984 477.73 395.544C477.73 395.936 477.637 396.337 477.45 396.748C477.376 397.028 477.077 397.383 476.554 397.812C476.05 398.241 475.584 398.54 475.154 398.708C474.632 398.839 474.034 398.904 473.362 398.904C472.914 398.904 472.625 398.867 472.494 398.792C472.27 398.661 472.112 399.165 472.018 400.304C472 400.435 471.99 400.612 471.99 400.836C471.99 401.153 472.037 401.405 472.13 401.592C472.149 401.611 472.214 401.685 472.326 401.816C472.438 401.928 472.578 402.031 472.746 402.124C472.914 402.199 473.092 402.236 473.278 402.236C473.446 402.236 473.577 402.217 473.67 402.18C473.876 402.124 474.072 402.021 474.258 401.872C474.445 401.704 474.706 401.452 475.042 401.116C475.341 400.817 475.556 400.612 475.686 400.5C475.78 400.332 475.966 400.248 476.246 400.248C476.321 400.248 476.452 400.267 476.638 400.304C476.806 400.435 476.89 400.575 476.89 400.724C476.89 400.873 476.797 401.153 476.61 401.564C476.517 401.751 476.284 402.012 475.91 402.348C475.556 402.665 475.238 402.917 474.958 403.104C474.38 403.421 473.801 403.58 473.222 403.58C472.868 403.58 472.457 403.496 471.99 403.328ZM473.642 397.644C473.829 397.607 474.1 397.56 474.454 397.504C474.809 397.448 475.098 397.327 475.322 397.14C475.565 396.935 475.845 396.589 476.162 396.104C476.218 395.955 476.246 395.805 476.246 395.656C476.246 395.376 476.19 395.18 476.078 395.068C475.948 394.937 475.798 394.872 475.63 394.872C475.369 394.872 475.098 394.984 474.818 395.208C474.632 395.264 474.352 395.469 473.978 395.824C473.624 396.179 473.316 396.533 473.054 396.888C472.793 397.224 472.709 397.42 472.802 397.476C472.765 397.532 472.858 397.579 473.082 397.616C473.306 397.635 473.493 397.644 473.642 397.644Z" fill="#FF3D7D"/>
<path d="M128.33 242L123.06 221.43H99.94L94.5 242H70.7L104.36 136.09H118.81L152.47 242H128.33ZM111.67 177.23L104.36 204.77H118.81L111.67 177.23ZM162.67 136.09H188.17V137.96C187.603 138.64 187.207 139.377 186.98 140.17C186.867 140.963 186.81 142.323 186.81 144.25V222.62H233.73V242H162.67V136.09ZM246.82 242V136.09H318.39V155.13H270.45V177.4H309.72V196.44H270.45V222.96H318.05V242H246.82ZM358.68 197.46L352.56 206.64V242H329.61V136.09H353.92V137.96C353.353 138.64 352.957 139.377 352.73 140.17C352.617 140.963 352.56 142.323 352.56 144.25V175.87L381.97 135.07C383.217 135.297 384.803 135.523 386.73 135.75C388.77 135.863 390.753 135.977 392.68 136.09C394.607 136.09 395.967 136.09 396.76 136.09H408.49L375.34 179.61L410.02 241.83L383.67 242.68L358.68 197.46ZM449.63 244.04C442.49 244.04 435.577 243.077 428.89 241.15C422.317 239.11 416.99 235.993 412.91 231.8L424.47 212.59L425.32 211.23L427.02 212.25C427.247 213.043 427.53 213.893 427.87 214.8C428.323 215.593 429.287 216.613 430.76 217.86C433.48 219.673 436.427 221.203 439.6 222.45C442.773 223.697 446.06 224.377 449.46 224.49C454.107 224.603 457.847 223.867 460.68 222.28C463.513 220.693 464.93 217.86 464.93 213.78C464.93 211.967 464.477 210.21 463.57 208.51C462.777 206.81 461.077 204.94 458.47 202.9C455.863 200.86 451.84 198.593 446.4 196.1C439.147 192.587 433.367 189.243 429.06 186.07C424.867 182.897 421.807 179.44 419.88 175.7C418.067 171.847 417.16 167.257 417.16 161.93C417.16 156.717 418.69 152.013 421.75 147.82C424.923 143.627 429.173 140.283 434.5 137.79C439.827 135.297 445.663 134.05 452.01 134.05C459.263 134.05 465.61 135.183 471.05 137.45C476.603 139.717 481.647 143.23 486.18 147.99L471.73 163.63L470.71 164.82L469.18 163.46C469.067 162.553 468.897 161.703 468.67 160.91C468.443 160.003 467.707 158.87 466.46 157.51C464.647 155.923 462.72 154.903 460.68 154.45C458.64 153.883 456.26 153.6 453.54 153.6C449.687 153.6 446.57 154.393 444.19 155.98C441.81 157.453 440.62 159.21 440.62 161.25C440.62 162.95 441.017 164.48 441.81 165.84C442.603 167.2 444.36 168.787 447.08 170.6C449.8 172.3 454.05 174.623 459.83 177.57C467.197 181.197 472.977 184.653 477.17 187.94C481.363 191.227 484.31 194.853 486.01 198.82C487.823 202.673 488.73 207.32 488.73 212.76C488.73 218.087 487.37 223.13 484.65 227.89C481.93 232.65 477.68 236.56 471.9 239.62C466.12 242.567 458.697 244.04 449.63 244.04Z" fill="black"/>
<path d="M73.06 377V333.39H101.55V341.23H81.6V349.63H97.84V357.47H81.6V377H73.06ZM108.83 344.03H118.98V348.93C119.867 347.203 121.103 345.827 122.69 344.8C124.323 343.773 126.05 343.26 127.87 343.26C129.783 343.26 131.487 343.563 132.98 344.17C134.473 344.777 135.873 345.757 137.18 347.11L133.12 355.58L132.91 356.14L132.21 355.86C132.023 355.487 131.883 355.09 131.79 354.67C131.697 354.203 131.393 353.69 130.88 353.13C130.273 352.617 129.573 352.197 128.78 351.87C128.033 351.497 127.193 351.31 126.26 351.31C124.113 351.31 122.34 351.987 120.94 353.34C119.54 354.693 118.84 356.863 118.84 359.85V377H108.83V344.03ZM156.43 377.84C153.49 377.84 150.807 377.14 148.38 375.74C145.953 374.293 144.017 372.263 142.57 369.65C141.123 367.037 140.4 364.003 140.4 360.55C140.4 357.33 141.123 354.413 142.57 351.8C144.017 349.187 145.953 347.11 148.38 345.57C150.807 344.03 153.49 343.26 156.43 343.26C159.37 343.26 162.053 344.03 164.48 345.57C166.953 347.11 168.913 349.187 170.36 351.8C171.853 354.413 172.6 357.33 172.6 360.55C172.6 363.957 171.853 366.967 170.36 369.58C168.913 372.193 166.953 374.223 164.48 375.67C162.053 377.117 159.37 377.84 156.43 377.84ZM156.43 370.07C158.297 370.07 159.837 369.207 161.05 367.48C162.263 365.707 162.87 363.397 162.87 360.55C162.87 357.517 162.263 355.183 161.05 353.55C159.837 351.87 158.297 351.03 156.43 351.03C154.703 351.03 153.21 351.87 151.95 353.55C150.737 355.183 150.13 357.517 150.13 360.55C150.13 363.397 150.713 365.707 151.88 367.48C153.093 369.207 154.61 370.07 156.43 370.07ZM177.01 377V344.03H187.02V347.81C188.14 346.457 189.33 345.36 190.59 344.52C191.897 343.68 193.507 343.26 195.42 343.26C197.38 343.26 199.223 343.75 200.95 344.73C202.677 345.663 204.077 347.157 205.15 349.21C206.223 351.217 206.76 353.877 206.76 357.19V377H196.82V357.26C196.82 352.733 195.467 350.47 192.76 350.47C191.267 350.47 189.937 351.053 188.77 352.22C187.603 353.34 187.02 354.903 187.02 356.91V377H177.01ZM229.93 377.84C227.597 377.84 225.543 377.35 223.77 376.37C221.997 375.39 220.643 373.64 219.71 371.12C218.777 368.6 218.403 365.053 218.59 360.48L218.94 351.73H212.43L212.57 344.03H219.29L219.57 336.68L229.65 335.35L230.28 335.28L230.35 336.05C230.163 336.377 229.977 336.703 229.79 337.03C229.603 337.357 229.487 337.917 229.44 338.71L229.02 344.03H239.03L238.89 351.73H228.88L228.46 359.99C228.32 362.65 228.413 364.727 228.74 366.22C229.113 367.667 229.627 368.67 230.28 369.23C230.98 369.79 231.703 370.07 232.45 370.07C233.897 370.07 235.203 369.767 236.37 369.16C237.583 368.553 238.633 367.877 239.52 367.13L241.2 374.06C239.613 375.227 237.887 376.16 236.02 376.86C234.2 377.513 232.17 377.84 229.93 377.84ZM262.9 377.84C259.773 377.84 256.95 377.163 254.43 375.81C251.91 374.457 249.903 372.52 248.41 370C246.963 367.433 246.24 364.377 246.24 360.83C246.24 357.19 246.94 354.063 248.34 351.45C249.74 348.837 251.63 346.83 254.01 345.43C256.437 343.983 259.12 343.26 262.06 343.26C264.627 343.26 267.007 343.89 269.2 345.15C271.44 346.363 273.237 348.183 274.59 350.61C275.943 353.037 276.62 356 276.62 359.5C276.62 360.06 276.62 360.76 276.62 361.6C276.62 362.44 276.597 363.117 276.55 363.63H255.76C255.853 365.17 256.273 366.43 257.02 367.41C257.813 368.39 258.77 369.113 259.89 369.58C261.057 370 262.223 370.21 263.39 370.21C264.743 370.21 266.027 370.047 267.24 369.72C268.5 369.347 269.69 368.6 270.81 367.48L275.71 372.24C274.03 374.247 272.093 375.693 269.9 376.58C267.707 377.42 265.373 377.84 262.9 377.84ZM255.83 356.35H267.24C267.24 352.757 265.397 350.96 261.71 350.96C260.123 350.96 258.793 351.403 257.72 352.29C256.693 353.13 256.063 354.483 255.83 356.35ZM282.01 377V344.03H292.02V347.81C293.14 346.457 294.33 345.36 295.59 344.52C296.897 343.68 298.507 343.26 300.42 343.26C302.38 343.26 304.223 343.75 305.95 344.73C307.677 345.663 309.077 347.157 310.15 349.21C311.223 351.217 311.76 353.877 311.76 357.19V377H301.82V357.26C301.82 352.733 300.467 350.47 297.76 350.47C296.267 350.47 294.937 351.053 293.77 352.22C292.603 353.34 292.02 354.903 292.02 356.91V377H282.01ZM329.4 377.84C326.88 377.84 324.57 377.21 322.47 375.95C320.417 374.643 318.783 372.707 317.57 370.14C316.357 367.527 315.75 364.307 315.75 360.48C315.75 354.927 316.987 350.68 319.46 347.74C321.933 344.753 325.223 343.26 329.33 343.26C330.59 343.26 331.85 343.423 333.11 343.75C334.417 344.077 335.443 344.823 336.19 345.99V329.75H346.76V330.52C346.527 330.8 346.363 331.103 346.27 331.43C346.177 331.757 346.153 332.317 346.2 333.11L346.06 373.08C346.06 373.733 346.107 374.387 346.2 375.04C346.293 375.693 346.503 376.347 346.83 377H337.17C336.843 376.347 336.657 375.927 336.61 375.74C336.563 375.507 336.54 375.063 336.54 374.41C335.7 375.717 334.65 376.603 333.39 377.07C332.13 377.583 330.8 377.84 329.4 377.84ZM331.15 370.14C332.737 370.14 333.973 369.463 334.86 368.11C335.793 366.71 336.26 364.167 336.26 360.48C336.26 356.84 335.84 354.32 335 352.92C334.16 351.473 332.853 350.75 331.08 350.75C329.26 350.75 327.86 351.66 326.88 353.48C325.9 355.253 325.41 357.68 325.41 360.76C325.41 362.767 325.713 364.47 326.32 365.87C326.927 367.27 327.673 368.343 328.56 369.09C329.447 369.79 330.31 370.14 331.15 370.14ZM399.4 377.84C396.88 377.84 394.57 377.21 392.47 375.95C390.417 374.643 388.783 372.707 387.57 370.14C386.357 367.527 385.75 364.307 385.75 360.48C385.75 354.927 386.987 350.68 389.46 347.74C391.933 344.753 395.223 343.26 399.33 343.26C400.59 343.26 401.85 343.423 403.11 343.75C404.417 344.077 405.443 344.823 406.19 345.99V329.75H416.76V330.52C416.527 330.8 416.363 331.103 416.27 331.43C416.177 331.757 416.153 332.317 416.2 333.11L416.06 373.08C416.06 373.733 416.107 374.387 416.2 375.04C416.293 375.693 416.503 376.347 416.83 377H407.17C406.843 376.347 406.657 375.927 406.61 375.74C406.563 375.507 406.54 375.063 406.54 374.41C405.7 375.717 404.65 376.603 403.39 377.07C402.13 377.583 400.8 377.84 399.4 377.84ZM401.15 370.14C402.737 370.14 403.973 369.463 404.86 368.11C405.793 366.71 406.26 364.167 406.26 360.48C406.26 356.84 405.84 354.32 405 352.92C404.16 351.473 402.853 350.75 401.08 350.75C399.26 350.75 397.86 351.66 396.88 353.48C395.9 355.253 395.41 357.68 395.41 360.76C395.41 362.767 395.713 364.47 396.32 365.87C396.927 367.27 397.673 368.343 398.56 369.09C399.447 369.79 400.31 370.14 401.15 370.14ZM437.9 377.84C434.773 377.84 431.95 377.163 429.43 375.81C426.91 374.457 424.903 372.52 423.41 370C421.963 367.433 421.24 364.377 421.24 360.83C421.24 357.19 421.94 354.063 423.34 351.45C424.74 348.837 426.63 346.83 429.01 345.43C431.437 343.983 434.12 343.26 437.06 343.26C439.627 343.26 442.007 343.89 444.2 345.15C446.44 346.363 448.237 348.183 449.59 350.61C450.943 353.037 451.62 356 451.62 359.5C451.62 360.06 451.62 360.76 451.62 361.6C451.62 362.44 451.597 363.117 451.55 363.63H430.76C430.853 365.17 431.273 366.43 432.02 367.41C432.813 368.39 433.77 369.113 434.89 369.58C436.057 370 437.223 370.21 438.39 370.21C439.743 370.21 441.027 370.047 442.24 369.72C443.5 369.347 444.69 368.6 445.81 367.48L450.71 372.24C449.03 374.247 447.093 375.693 444.9 376.58C442.707 377.42 440.373 377.84 437.9 377.84ZM430.83 356.35H442.24C442.24 352.757 440.397 350.96 436.71 350.96C435.123 350.96 433.793 351.403 432.72 352.29C431.693 353.13 431.063 354.483 430.83 356.35ZM467.44 377L455.54 344.03H465.97L472.34 363.77L475.28 356.42C475.98 354.367 476.563 352.29 477.03 350.19C477.497 348.09 477.73 346.037 477.73 344.03H486.9C486.76 346.177 486.317 348.393 485.57 350.68C484.823 352.92 484.03 355.137 483.19 357.33L475.28 377H467.44Z" fill="black"/>
<rect x="69" y="250" width="425" height="77" fill="black"/>
<path fill-rule="evenodd" clip-rule="evenodd" d="M565.167 381.963C560.471 381.738 562.36 373.579 562.697 370.582C566.414 359.638 565.54 347.698 567.002 336.226C567.913 325.518 569.083 314.843 570.068 304.142C572.001 282.422 585.886 238.204 601.73 231.093C603.726 222.393 611.97 214.272 622.4 214.272C629.514 205.907 638.076 200.019 649.059 201.208C653.597 201.413 657.999 206.195 662.347 207.118C664.782 207.452 686.391 206.593 690.72 209.147C693.735 210.685 696.457 213.527 695.57 217.145C694.156 221.529 698.551 216.786 707.721 221.464C726.42 232.621 715.246 247.545 714.751 248.008C726.42 264.136 736.619 277.22 741.338 296.934C744.397 311.569 744.052 326.678 746.615 341.389C747.519 346.49 748.908 351.416 750.409 356.369C752.037 362.852 752.829 379.009 753.726 379.154C755.36 379.557 752.781 382.891 751.05 382.893C703.035 390.805 654.265 383.221 605.992 381.982C592.388 381.512 578.77 381.404 565.167 381.963Z" fill="white"/>
<path fill-rule="evenodd" clip-rule="evenodd" d="M637.94 249.431C637.918 249.213 637.621 249.213 637.598 249.431L637.259 252.682C636.847 256.652 636.45 260.615 636.162 264.604C635.803 269.578 635.563 274.551 635.447 279.536C635.044 296.899 634.964 314.27 634.93 331.637C632.566 331.474 630.201 331.318 627.836 331.166C626.231 331.063 624.625 330.964 623.02 330.867L618.927 330.621V330.621L617.242 330.518C616.103 330.448 614.809 330.163 614.013 331.165C613.694 331.566 613.535 332.088 613.832 332.564C614.517 333.662 615.57 333.624 616.761 333.671C617.884 333.717 619.007 333.761 620.131 333.804C622.538 333.897 624.946 333.984 627.354 334.051C629.881 334.122 632.407 334.179 634.933 334.222C634.959 341.553 635.264 348.876 635.594 356.199L635.744 359.495C636.148 368.407 636.582 377.327 637.2 386.228C637.251 386.957 638.288 386.955 638.339 386.228C639.034 376.205 639.493 366.16 639.947 356.123C640.277 348.846 640.469 341.567 640.561 334.287C640.895 334.289 641.229 334.293 641.562 334.295C651.044 334.336 660.524 334.377 670.006 334.288C669.99 334.307 669.974 334.326 669.964 334.35C669.278 335.959 669.212 338.013 669.229 339.74C669.248 341.72 669.517 343.677 669.976 345.603C671.621 352.503 675.865 358.683 680.698 363.792L680.855 363.958C681.995 365.155 683.303 366.357 684.003 367.881C684.718 369.438 684.966 371.258 685.319 372.93L685.36 373.122L686.74 379.452C687.178 381.463 687.303 384.395 688.905 385.846C690.399 387.199 692.379 386.492 693.083 384.75C693.632 383.39 693.085 381.896 692.76 380.536L690.211 369.893C689.792 368.157 689.334 366.41 688.43 364.85C687.505 363.253 686.147 362.096 684.762 360.911C682.139 358.668 679.732 356.1 677.695 353.319C675.66 350.54 673.92 347.476 672.7 344.255C672.09 342.642 671.589 340.966 671.244 339.277C670.916 337.674 670.919 336.014 670.567 334.429C670.543 334.319 670.45 334.244 670.344 334.211C670.369 334.14 670.33 334.044 670.231 334.038L662.476 333.543C655.583 333.101 648.69 332.648 641.803 332.131L640.586 332.043V332.043C640.681 322.33 640.601 312.615 640.424 302.898C640.262 293.987 640.259 285.074 639.992 276.164C639.859 271.742 639.573 267.331 639.255 262.918C638.929 258.405 638.408 253.931 637.94 249.431ZM710.752 301.097C710.835 300.603 710.208 300.296 709.92 300.749C706.618 305.919 705.025 311.535 704.354 317.586C703.762 322.926 703.936 328.343 704.231 333.697C704.546 339.407 704.914 345.116 705.285 350.824L705.856 359.576V359.576L707.288 381.517C707.391 383.087 707.749 384.514 709.11 385.244C709.282 385.387 709.461 385.515 709.671 385.626C710.405 386.016 711.38 385.819 711.805 385.07L711.635 385.181C711.486 385.274 711.653 385.144 712.135 384.793L712.544 384.267V384.267C712.841 383.823 713.031 383.387 713.107 382.86C713.226 382.04 713.072 381.142 713.018 380.318L712.079 365.93V365.93C711.349 354.745 710.497 343.563 709.854 332.372C709.555 327.156 709.345 321.936 709.487 316.711C709.628 311.515 709.895 306.231 710.752 301.097ZM682.187 204.783L682.004 204.752C675.445 203.67 668.313 203.872 662.319 207.013C662.27 207.039 662.292 207.121 662.348 207.118L664.277 207.042C670.385 206.804 676.474 206.664 682.479 208.089L683.094 208.236C685.257 208.76 687.515 209.402 689.252 210.821C690.913 212.177 691.739 214.269 692.534 216.196L692.641 216.45C693.447 218.352 694.468 220.157 696.236 221.346C698.526 222.887 701.28 222.698 703.905 222.907C708.528 223.276 712.308 226.605 714.189 230.678C715.327 233.144 715.813 235.909 715.909 238.606C715.959 239.979 715.966 241.405 715.782 242.769C715.723 243.205 715.18 244.794 714.903 244.756C714.288 244.671 713.726 244.99 713.534 245.478C712.015 244.021 710.453 242.605 708.84 241.24C704.819 237.838 700.488 234.756 695.927 232.106C692.447 230.084 688.775 228.081 684.973 226.567C685.274 226.56 685.571 226.62 685.859 226.768C685.985 226.834 686.11 226.677 686.01 226.573C684.813 225.321 683.378 225.143 681.932 225.477C681.624 225.379 681.315 225.285 681.005 225.195C680.851 225.151 680.774 225.362 680.9 225.444L681.255 225.669V225.669C679.677 226.194 678.129 227.226 676.902 228.04C673.38 230.379 670.28 233.237 667.137 236.043L666.565 236.551C663.799 239.005 660.962 241.39 657.819 243.358C656.173 244.389 654.445 245.342 652.633 246.051C651.078 246.659 648.547 247.042 647.818 248.674C647.171 249.455 647.442 250.452 648.2 250.978C649.478 252.376 652.035 251.473 653.559 250.891C655.395 250.189 657.174 249.345 658.871 248.356C662.166 246.435 665.203 244.046 668.032 241.505C670.988 238.851 673.775 236.032 676.649 233.294C677.895 232.108 679.111 230.895 680.358 229.71L680.985 229.121C681.621 228.528 682.528 227.603 683.498 227.044C685.325 228.126 687.18 229.164 688.99 230.275C691.517 231.825 693.97 233.487 696.384 235.203C701.033 238.507 705.439 242.208 709.528 246.175C717.029 253.45 723.419 261.758 729.002 270.554L729.425 271.225C732.598 276.26 735.598 281.457 737.725 287.02C740.065 293.142 741.203 299.58 741.822 306.078C742.435 312.53 742.642 319.015 743.328 325.461C744.032 332.072 745.418 338.537 746.994 344.99L747.37 346.52C748.796 352.299 750.268 358.078 751.001 363.993C751.393 367.153 751.628 370.356 751.575 373.542C751.522 376.746 751.015 379.879 750.606 383.049C750.449 384.264 751.652 385.277 752.729 385.438C753.967 385.623 755.031 384.838 755.415 383.696C756.615 380.134 756.833 376.197 756.795 372.458C756.758 368.663 756.27 364.893 755.584 361.163C754.234 353.826 752.152 346.641 750.41 339.392C748.875 333.003 747.844 326.602 747.289 320.057C746.712 313.266 746.367 306.453 745.315 299.711C744.277 293.055 742.324 286.698 739.378 280.629C736.696 275.103 733.352 269.902 729.847 264.861C725.59 258.74 720.915 252.915 715.689 247.607C716.158 247.587 716.64 247.436 717.083 247.162C718.437 246.323 719.068 244.681 719.262 243.183C719.715 239.676 719.606 236.016 718.698 232.588C717.234 227.058 713.434 222.144 707.926 220.151C706.508 219.638 705.001 219.451 703.499 219.414C702.073 219.379 700.516 219.563 699.14 219.114C696.95 218.399 696.012 215.837 695.19 213.895L695.152 213.806C694.098 211.332 692.832 209.211 690.549 207.665C688.113 206.017 685.061 205.267 682.187 204.783V204.783ZM619.869 214.569C617.898 213.89 615.434 214.506 613.506 215.1C611.359 215.761 609.375 216.979 607.674 218.425C605.879 219.951 604.396 221.834 603.348 223.938L603.248 224.141C602.29 226.093 601.2 228.772 601.683 230.917C601.697 230.978 601.713 231.036 601.731 231.093C597.82 233.005 594.209 235.4 591.064 238.436C587.402 241.971 584.302 245.993 581.678 250.338C571.256 267.597 569.422 288.325 568.191 308.007L567.884 312.998C567.216 323.774 566.434 334.525 564.402 345.153L564.254 345.92C562.082 357.047 558.973 368.259 559.288 379.674C559.383 383.094 564.471 383.071 564.618 379.674C565.174 366.888 568.177 354.544 570.211 341.958C573.79 319.816 571.997 296.989 577.067 275.068C579.057 266.466 582.139 258.121 586.541 250.442C588.715 246.649 591.203 242.984 594.117 239.711C596.624 236.895 599.23 234.185 602.159 231.818C603.096 232.75 604.966 232.275 605.455 230.917C605.791 229.983 605.693 228.892 605.909 227.914C606.108 227.007 606.384 226.108 606.752 225.253C607.484 223.55 608.559 221.915 609.8 220.537C611.14 219.047 612.68 217.81 614.404 216.788C616.14 215.759 618.038 215.452 619.869 214.7C619.93 214.675 619.936 214.593 619.869 214.569ZM612.211 332.905C612.208 332.815 612.102 332.773 612.036 332.833C611.345 333.465 610.928 334.371 610.419 335.148C609.833 336.044 609.217 336.922 608.571 337.776C607.277 339.489 605.836 341.103 604.384 342.685C603.034 344.156 601.595 345.565 600.102 346.892C598.484 348.332 596.672 349.615 595.202 351.209C592.135 354.534 591.64 359.097 590.993 363.382L590.922 363.846C590.527 366.389 590.174 368.938 589.855 371.492C589.7 372.734 589.546 373.977 589.419 375.222L589.381 375.616C589.268 376.836 589.238 378.072 589.942 379.137C590.697 380.277 592.412 380.676 593.431 379.584C595.183 377.707 594.855 374.372 595.083 371.958C595.271 369.961 595.485 367.967 595.724 365.975L595.845 364.98C596.127 362.714 596.356 360.404 596.878 358.178C597.338 356.218 598.214 354.738 599.652 353.318C601.1 351.887 602.606 350.552 603.943 349.011C605.361 347.377 606.64 345.625 607.792 343.797C608.778 342.233 609.568 340.531 610.292 338.831L610.412 338.548C611.112 336.89 612.266 334.731 612.211 332.905ZM586.917 261.694C586.901 261.463 586.557 261.459 586.552 261.694C586.509 263.683 586.467 265.672 586.425 267.661C586.091 283.687 586.297 299.752 584.678 315.723C583.915 323.254 582.509 330.674 580.883 338.063C580.05 341.843 579.177 345.615 578.347 349.397C577.539 353.082 576.672 356.785 576.03 360.505C575.4 364.16 574.836 367.844 574.582 371.547L574.551 372.03C574.442 373.823 573.921 376.461 574.915 378.051C575.993 379.774 578.055 379.804 579.209 378.16C580.293 376.617 580.024 373.871 580.215 372.03C580.41 370.154 580.616 368.276 580.849 366.405C581.305 362.754 581.906 359.111 582.531 355.485C583.833 347.933 585.721 340.477 587.114 332.937C588.542 325.211 589.557 317.431 589.6 309.565C589.642 301.632 588.797 293.715 588.37 285.8C587.937 277.761 587.444 269.727 586.917 261.694ZM663.128 211.846C662.695 210.397 661.166 209.491 659.675 209.898C658.308 210.271 657.18 211.919 657.714 213.329C658.297 214.867 659.316 216.179 660.175 217.577C660.969 218.869 662.126 219.886 662.934 221.155L662.044 222.109C661.598 222.585 661.151 223.058 660.699 223.523L659.146 225.122C657.936 226.364 656.718 227.6 655.466 228.799C651.785 232.327 648.045 235.738 643.922 238.759C642.984 239.447 642.038 240.13 641.066 240.77L640.703 241.009C640.036 241.443 639.292 241.869 638.486 241.796C636.528 241.617 634.759 239.551 633.413 238.266L633.343 238.199C630.008 235.047 626.92 231.601 624.221 227.895C623.621 227.072 623.041 226.235 622.476 225.388C623.781 223.873 623.469 220.917 623.541 219.08C623.592 217.788 623.596 216.497 623.603 215.204L623.607 214.944C623.622 214.107 623.66 213.305 623.114 212.616C623.082 212.577 623.016 212.578 622.976 212.599C622.227 212.988 621.997 213.641 621.677 214.373L621.644 214.449C621.255 215.327 620.883 216.213 620.506 217.097C620.112 218.022 619.75 218.96 619.384 219.896C619.213 220.331 619.051 220.769 618.892 221.208C618.795 221.489 618.694 221.768 618.591 222.047L618.567 222.068C618.431 222.183 618.315 222.304 618.216 222.429C617.798 222.637 617.467 223.015 617.311 223.57C616.972 224.78 617.673 225.766 618.299 226.726C620.84 230.626 623.737 234.343 626.957 237.714C628.557 239.389 630.24 240.989 631.991 242.507L632.298 242.77C633.871 244.113 635.58 245.386 637.681 245.7C640.141 246.068 642.142 244.853 644.025 243.453L644.213 243.313C645.997 241.971 647.746 240.581 649.441 239.128C652.895 236.165 656.182 232.984 659.098 229.494C661.936 226.099 664.74 222.303 666.489 218.218C666.596 217.969 666.315 217.708 666.096 217.916C665.241 218.724 664.419 219.576 663.607 220.438C663.585 219.169 663.82 217.888 663.689 216.61C663.529 215.057 663.575 213.341 663.128 211.846Z" fill="black"/>
<path fill-rule="evenodd" clip-rule="evenodd" d="M604.935 152.561C607.134 143.353 611.941 134.783 619.638 127.857C642.798 105.11 685.331 117.457 685.139 151.735C685.969 155.739 686.307 159.855 686.031 163.938C685.918 165.68 685.159 168.111 686.178 169.679C688.479 172.613 689.815 174.775 689.033 178.676C688.378 182.083 686.045 184.497 682.895 185.78C681.006 186.318 679.214 187.491 678.514 189.279C674.309 196.926 671.194 203.287 664.566 208.499C662.855 209.84 645.312 217.888 639.532 217.888C622.61 217.888 601.282 211.798 600.928 193.021C600.866 188.896 601.595 184.724 602.052 180.632C603.164 171.295 602.772 161.619 604.935 152.561Z" fill="white"/>
<path fill-rule="evenodd" clip-rule="evenodd" d="M605.316 147.955C605.31 147.842 605.146 147.816 605.114 147.928C604.485 150.145 604.129 152.404 603.637 154.655C603.163 156.824 602.716 158.999 602.344 161.186C601.641 165.315 601.049 169.454 600.499 173.605L600.362 174.643C599.405 181.945 597.825 189.553 599.207 196.899C600.386 203.166 604.339 208.218 609.434 211.922C614.258 215.428 620.106 217.679 625.913 218.958C632.146 220.332 639.534 220.741 644.605 216.201C646.636 214.383 643.868 210.776 641.666 212.416C636.494 216.268 629.915 215.133 624.08 213.6L623.903 213.553C618.781 212.198 613.625 210.144 609.559 206.679C605.064 202.847 602.841 197.529 602.584 191.697C602.44 188.421 602.748 185.148 603.079 181.89L603.116 181.528C603.497 177.803 603.896 174.08 604.265 170.353C604.601 166.955 604.891 163.537 605.045 160.124L605.116 158.402C605.265 154.931 605.466 151.41 605.316 147.955ZM665.968 119.115C657.553 114.763 647.881 113.205 638.515 114.666C629.512 116.07 621.249 120.685 615.073 127.303C612.057 130.534 609.381 134.271 607.67 138.355C606.821 140.383 606.156 142.499 605.801 144.672C605.619 145.789 605.44 146.947 605.406 148.08C605.374 149.128 605.684 150.112 605.648 151.178C605.642 151.345 605.899 151.377 605.938 151.217C606.231 150.028 606.936 149.129 607.378 148C607.708 147.157 608.083 146.334 608.465 145.514L608.793 144.811C609.745 142.767 610.883 140.807 612.008 138.855C614.275 134.922 617.183 131.348 620.588 128.332C626.567 123.038 634.238 119.62 642.243 119.004C650.553 118.365 658.981 120.333 666.077 124.691C673.173 129.049 678.539 135.824 681.324 143.625C682.73 147.561 683.506 151.662 683.687 155.832C683.778 157.943 683.693 160.072 683.544 162.179L683.47 163.183C683.383 164.388 683.324 165.588 683.505 166.764C682.225 166.367 680.883 166.203 679.537 166.399C677.536 166.691 676.341 167.506 675.443 169.281C675.396 169.374 675.49 169.467 675.583 169.421C676.747 168.844 678.629 169.148 679.862 169.45C681.144 169.765 682.299 170.312 683.389 171.052C685.405 172.42 686.985 174.541 687.373 176.973C687.747 179.323 686.776 181.702 685.145 183.387C684.305 184.254 683.302 185.004 682.178 185.471C680.814 186.039 679.464 186.021 678.258 186.958C677.512 187.537 677.692 188.528 678.198 189.17C675.653 191.943 673.395 194.977 670.85 197.76C669.67 199.05 668.5 200.342 667.37 201.674L666.948 202.175C665.819 203.529 664.023 204.958 663.507 206.66C663.186 207.719 664.327 209.104 665.481 208.621C667.251 207.881 668.515 205.955 669.711 204.478L669.788 204.382C671.043 202.851 672.156 201.235 673.174 199.541L673.509 198.983C675.35 195.908 677.175 192.718 678.348 189.34C678.426 189.419 678.508 189.491 678.594 189.552C680.285 190.747 682.744 189.828 684.432 189.052C686.027 188.32 687.488 187.219 688.628 185.891C691.105 183.004 692.247 179.265 691.42 175.518C690.719 172.344 688.504 169.256 685.601 167.651C686.941 166.118 687.496 164.052 687.865 162.032C688.337 159.454 688.431 156.812 688.303 154.197C688.047 148.989 686.698 143.856 684.613 139.087C680.881 130.554 674.285 123.417 665.968 119.115ZM683.68 176.054C681.914 175.725 680.268 175.646 678.564 176.388C676.716 177.194 675.416 178.524 674.207 180.083C672.831 181.856 676.357 183.793 677.246 181.439L677.272 181.367C677.51 180.67 677.936 179.996 678.476 179.376C678.638 179.623 678.855 179.84 679.11 179.964C679.418 180.115 679.889 180.011 679.963 179.62C680.045 179.185 679.954 178.659 679.702 178.292L679.667 178.241V178.241C680.893 177.262 682.367 176.546 683.68 176.316C683.811 176.293 683.81 176.078 683.68 176.054Z" fill="black"/>
<path fill-rule="evenodd" clip-rule="evenodd" d="M628.375 201.486C630.008 200.824 631.466 199.72 632.531 198.31C632.901 197.819 632.998 197.301 632.92 196.828C632.832 196.295 632.515 195.813 632.083 195.489C631.649 195.164 631.106 195.004 630.582 195.086C630.126 195.157 629.672 195.405 629.313 195.919L629.238 196.022C628.605 196.873 627.779 197.572 626.839 198.022C625.932 198.456 624.919 198.658 623.869 198.54C621.871 198.316 620.494 197.243 619.031 195.785C618.849 195.601 618.668 195.411 618.485 195.218C618.37 195.044 618.21 194.931 618.033 194.872C617.835 194.807 617.612 194.81 617.408 194.881C617.211 194.95 617.035 195.079 616.917 195.251C616.805 195.415 616.741 195.617 616.762 195.85C616.896 197.36 617.691 198.709 618.82 199.767C620.075 200.943 621.737 201.756 623.302 202.042C625.027 202.356 626.784 202.131 628.375 201.486V201.486ZM622.489 178.181C620.654 179.288 617.858 181.872 619.832 184.618C622.155 187.04 625.5 184.263 627.148 183.008C628.677 182.034 630.394 184.537 628.976 185.674C617.065 194.434 612.232 178.47 621.561 176.878C622.588 176.703 622.969 177.838 622.489 178.181ZM643.833 167.99C643.63 165.491 639.798 164.923 639.417 167.397C639.076 169.612 639.477 171.648 640.482 173.642C641.442 175.548 643.855 174.659 644.037 172.924C644.282 170.598 643.959 169.545 643.833 167.99ZM614.662 166.884C614.128 166.189 613.356 165.714 612.432 165.982C609.545 166.821 610.396 170.893 611.41 172.875C611.961 173.952 613.742 174.225 614.547 173.277C615.859 171.731 616.487 168.644 614.819 167.122C614.774 167.043 614.724 166.964 614.662 166.884ZM640.523 157.053L640.066 156.974C638.655 156.731 636.901 156.498 635.903 157.625C635.373 158.223 635.191 159.334 635.903 159.906C637.154 160.912 638.538 160.522 640.038 160.607C641.275 160.678 642.463 160.881 643.653 161.219C646.266 161.961 648.394 163.315 650.625 164.802C650.918 164.997 651.217 164.625 651.077 164.353C649.789 161.847 647.293 159.788 644.793 158.533C643.459 157.864 641.999 157.308 640.523 157.053ZM617.294 155.93L616.945 156.001C613.146 156.79 608.21 158.366 606.411 162.073C606.342 162.598 606.415 162.71 606.474 162.783L606.493 162.808C606.542 162.87 606.581 162.957 606.809 163.028C606.873 163.013 606.937 162.997 607.002 162.98C607.826 162.766 608.479 162.47 609.11 162.163L609.795 161.828C610.59 161.441 611.392 161.068 612.241 160.792C614.054 160.205 615.919 159.791 617.813 159.57C618.223 159.522 618.618 159.385 618.93 159.149C619.226 158.925 619.452 158.615 619.555 158.203C619.689 157.67 619.65 157.266 619.363 156.785C619.146 156.424 618.836 156.174 618.48 156.03C618.118 155.883 617.705 155.849 617.294 155.93Z" fill="black"/>
<path fill-rule="evenodd" clip-rule="evenodd" d="M617.343 205.199C619.606 203.196 622.142 199.17 625.392 202.356C626.196 203.256 626.522 205.274 627.751 205.669C629.384 206.196 631.002 204.479 631.559 203.162C633.835 195.84 624.424 193.831 619.063 195.014C616.444 196.083 614.515 200.384 614.398 202.628C614.323 204.137 615.608 206.355 617.343 205.199M600.273 193.913C600.295 193.816 600.326 193.728 600.363 193.648C601.364 193.272 602.155 193.655 602.645 194.371C602.629 194.549 602.575 194.729 602.542 194.906C602.919 195.696 603.26 196.674 603.771 197.357C603.872 197.364 603.977 197.354 604.078 197.325C612.56 198.205 608.419 189.388 617.022 187.198C623.673 186.108 635.693 187.357 638.83 194.233C641.304 205.217 653.886 197.564 658.016 191.852C662.424 186.653 665.274 180.3 668.022 174.136C668.602 172.832 670.414 173.765 670.217 175.016C672.757 180.078 672.673 186.157 673.302 191.702C674.372 202.765 675.414 218.279 665.067 225.034C651.586 240.171 617.923 245.513 602.374 231.604C596.991 220.108 597.655 206.084 600.273 193.913" fill="black"/>
<path fill-rule="evenodd" clip-rule="evenodd" d="M635.243 112.296C647.223 111.398 659.006 113.7 670.438 116.488L671.226 116.685C677.727 118.304 684.6 119.76 690.093 123.224C697.768 128.352 701.731 136.512 705.189 144.045C708.209 149.642 706.666 155.953 702.115 159.861C701.641 155.977 700.834 152.207 699.572 148.468C699.309 147.883 699.508 147.692 698.941 147.616C698.083 157.694 702.305 165.14 693.951 177.084C690.326 182.719 694.522 186.843 684.286 189.809L684.009 189.901C681.877 190.603 679.548 191.157 677.459 190.765L677.646 190.499C677.837 190.226 677.895 190.093 677.618 189.976C677.625 189.963 677.635 189.949 677.646 189.934C677.87 189.564 678.087 189.189 678.294 188.811C678.378 188.835 678.463 188.853 678.55 188.873C678.493 188.964 678.486 189.056 678.644 189.087C679.207 189.255 679.785 189.323 680.376 189.291L680.503 189.283C681.172 189.247 681.593 189.141 681.969 189.042C682.094 189.024 682.219 189.007 682.342 188.984C683.554 188.75 684.645 186.918 685.475 186.327C694.939 181.637 693.116 168.423 681.45 166.914C681.211 156.861 676.768 138.387 667.674 128.808C659.453 119.998 640.714 119.317 625.1 120.664C624.872 120.729 617.985 133.88 615.325 128.086C612.916 128.273 620.036 126.509 617.625 126.944C619.356 125.813 620.778 121.875 622.8 121.235C612.45 128.808 627.966 113.442 632.429 112.622C633.353 112.423 634.29 112.314 635.243 112.296Z" fill="#231F20"/>
<path fill-rule="evenodd" clip-rule="evenodd" d="M601.744 179.335C603.379 181.518 606.412 182.214 609.209 181.974C615.242 181.397 617.141 174.59 617.339 169.3C613.293 170.431 617.681 162.424 603.852 161.543C598.977 161.14 600.321 164.065 598.167 166.201C598.211 170.686 598.963 175.56 601.744 179.335M630.478 174.182C634.04 190.752 653.544 186.81 655.593 171.874C653.701 170.547 654.2 167.272 651.849 166.085C648.124 163.721 643.468 163.822 639.238 163.877C633.83 164.246 632.29 166.471 629.512 168.899C629.646 170.52 630.031 172.442 630.478 174.182M594.017 158.799C594.217 158.766 594.417 158.735 594.618 158.706C594.774 158.618 594.957 158.55 595.171 158.509C595.658 158.386 596.141 158.303 596.624 158.259C603.557 156.709 619.593 158.909 620.255 164.786C622.463 165.518 624.373 164.863 626.932 164.928C628.879 156.841 662.549 157.982 664.168 162.858C664.174 162.856 664.18 162.855 664.187 162.853C665.743 162.374 668.036 162.49 669.817 162.414C673.62 162.335 677.427 162.671 681.147 163.468C688.114 164.568 697.622 165.856 692.777 174.498C692.776 174.5 692.775 174.501 692.774 174.503L692.773 174.502C691.938 175.352 690.521 174.668 690.468 173.517C692.097 169.422 688.418 168.931 685.587 167.754C678.543 165.24 671.371 164.891 664.086 165.669C663.538 166.31 662.706 166.869 661.827 167.162C656.956 167.965 659.523 171.554 656.444 172.076C657.01 184.589 641.718 191.419 632.857 183.194C629.32 179.758 628.476 174.668 627.656 170.08C627.222 169.983 626.947 169.747 626.786 169.436C625.742 168.401 625.087 167.446 623.025 167.162C620.962 166.878 619.375 167.448 619.16 167.622C619.106 167.731 619.048 167.839 618.98 167.948C618.886 168.11 618.757 168.239 618.612 168.34C620.648 180.8 610.911 188.68 601.082 182.218C596.81 178.226 595.908 172.116 595.729 166.662C595.15 166.315 594.784 165.642 594.984 164.796C595.261 163.63 594.613 162.621 593.581 162.114C592.241 161.456 592.478 159.052 594.017 158.799" fill="black"/>
<path d="M81.448 313V268.144H93.76C97.744 268.144 100.84 268.696 103.048 269.8C105.304 270.856 107.176 272.392 108.664 274.408C110.2 276.472 111.4 278.896 112.264 281.68C113.176 284.416 113.632 287.488 113.632 290.896C113.632 295.408 112.912 299.32 111.472 302.632C110.032 305.944 107.776 308.512 104.704 310.336C101.68 312.112 97.744 313 92.896 313H81.448ZM91.456 305.008H92.752C95.584 305.008 97.792 304.384 99.376 303.136C101.008 301.888 102.136 300.208 102.76 298.096C103.432 295.936 103.768 293.536 103.768 290.896C103.768 287.968 103.48 285.4 102.904 283.192C102.376 280.984 101.368 279.256 99.88 278.008C98.392 276.712 96.256 276.064 93.472 276.064H91.456V305.008ZM145.128 313L142.896 304.288H133.104L130.8 313H120.72L134.976 268.144H141.096L155.352 313H145.128ZM138.072 285.568L134.976 297.232H141.096L138.072 285.568ZM163.016 268.144H173.888L186.704 295.216L185.984 268.144H195.56V268.936C195.32 269.224 195.152 269.536 195.056 269.872C195.008 270.208 194.984 270.784 194.984 271.6V313H185.048L172.016 284.128V313H163.016V268.144ZM206.536 313V304.864H215.248V276.28H206.968V268.144H233.464V276.28H224.752V304.864H233.824V313H206.536ZM246.672 268.144H257.472V268.936C257.232 269.224 257.064 269.536 256.968 269.872C256.92 270.208 256.896 270.784 256.896 271.6V304.792H276.768V313H246.672V268.144ZM287.312 313V268.144H317.624V276.208H297.32V285.64H313.952V293.704H297.32V304.936H317.48V313H287.312ZM339.544 313L325.72 268.144H335.656L343.648 297.808L351.136 268.144H360.856L347.176 313H339.544ZM370.536 313V304.864H379.248V276.28H370.968V268.144H397.464V276.28H388.752V304.864H397.824V313H370.536ZM426.8 313.864C423.536 313.864 420.512 313.048 417.728 311.416C414.992 309.784 412.808 307.264 411.176 303.856C409.544 300.448 408.728 296.104 408.728 290.824C408.728 286.408 409.28 282.712 410.384 279.736C411.536 276.712 413.024 274.288 414.848 272.464C416.72 270.64 418.736 269.32 420.896 268.504C423.104 267.688 425.288 267.28 427.448 267.28C434.456 267.28 439.328 270.184 442.064 275.992L436.448 281.032L435.944 281.464L435.44 280.888C435.44 280.504 435.392 280.12 435.296 279.736C435.2 279.352 434.936 278.848 434.504 278.224C433.592 277.168 432.608 276.472 431.552 276.136C430.496 275.752 429.416 275.56 428.312 275.56C426.92 275.56 425.48 276.112 423.992 277.216C422.552 278.272 421.328 279.904 420.32 282.112C419.36 284.272 418.88 287.056 418.88 290.464C418.88 295.36 419.648 299.104 421.184 301.696C422.768 304.24 424.808 305.512 427.304 305.512C429.032 305.512 430.448 305.224 431.552 304.648C432.656 304.024 433.736 302.8 434.792 300.976L441.704 306.232C439.88 309.16 437.744 311.176 435.296 312.28C432.848 313.336 430.016 313.864 426.8 313.864ZM450.16 268.144H460.96V268.936C460.72 269.224 460.552 269.536 460.456 269.872C460.408 270.208 460.384 270.784 460.384 271.6V285.712H471.688V268.144H482.488V268.936C482.248 269.224 482.08 269.536 481.984 269.872C481.936 270.208 481.912 270.784 481.912 271.6V313H471.688V293.632H460.384V313H450.16V268.144Z" fill="#FFC233"/>
<g clip-path="url(#clip0)">
<path d="M812.835 104.418C812.882 103.991 812.756 103.594 812.486 103.315L808.416 99.1001C807.854 98.5182 806.832 98.5931 806.134 99.2675L801.076 104.152C800.377 104.826 800.358 105.939 801.032 106.637L804.696 110.431C805.37 111.129 806.483 111.149 807.181 110.474L812.239 105.59C812.574 105.266 812.789 104.844 812.835 104.418Z" fill="#FF5E82"/>
<path d="M804.696 110.431C805.37 111.129 806.483 111.149 807.181 110.474L812.239 105.59C812.574 105.266 812.789 104.844 812.835 104.418C812.881 103.991 812.756 103.594 812.486 103.315L810.451 101.208L802.864 108.534L804.696 110.431Z" fill="#B7457D"/>
<path d="M805.48 101.121C803.909 99.494 803.954 96.8922 805.581 95.3212L808.953 92.065C809.651 91.3906 810.764 91.41 811.438 92.1084L819.579 100.538C819.903 100.873 820.08 101.324 820.072 101.79C820.064 102.256 819.871 102.7 819.535 103.024L816.164 106.28C814.537 107.851 811.935 107.805 810.364 106.179L805.48 101.121Z" fill="#5E54AC"/>
<path d="M810.364 106.179C811.935 107.805 814.537 107.851 816.164 106.28L819.535 103.024C819.871 102.7 820.064 102.256 820.072 101.79C820.08 101.324 819.903 100.873 819.579 100.538L815.509 96.3232L807.922 103.65L810.364 106.179Z" fill="#453D81"/>
<path d="M808.502 94.1291C807.154 92.7324 807.193 90.5068 808.589 89.158L829.242 69.2137C829.94 68.5393 831.053 68.5588 831.728 69.2571L843.124 81.0588C843.799 81.7572 843.779 82.87 843.081 83.5444L822.428 103.489C821.031 104.837 818.806 104.798 817.457 103.402L808.502 94.1291Z" fill="#FF5E82"/>
<path d="M843.124 81.0587L837.426 75.1578L812.98 98.7653L817.457 103.402C818.806 104.798 821.031 104.837 822.428 103.488L843.081 83.5443C843.779 82.8699 843.799 81.7571 843.124 81.0587V81.0587Z" fill="#B7457D"/>
<path d="M827.571 70.0134C827.247 69.6781 827.07 69.2277 827.078 68.7616C827.086 68.2955 827.279 67.8517 827.614 67.5278L834.358 61.0155C835.056 60.3411 836.169 60.3606 836.844 61.0589L851.497 76.2325C851.82 76.5678 851.998 77.0181 851.99 77.4843C851.981 77.9503 851.789 78.3941 851.453 78.718L844.709 85.2305C844.011 85.9049 842.898 85.8854 842.224 85.1871L827.571 70.0134Z" fill="#5E54AC"/>
<path d="M851.989 77.484C851.998 77.0178 851.82 76.5675 851.496 76.2322L844.17 68.6455L834.897 77.6001L842.224 85.1868C842.898 85.8852 844.011 85.9046 844.709 85.2302L851.453 78.7178C851.788 78.3939 851.981 77.9501 851.989 77.484Z" fill="#453D81"/>
<path d="M856.791 114.233L833.156 97.4614C832.605 97.0702 831.878 97.0298 831.287 97.3576L828.625 98.833C828.034 99.1608 827.683 99.7985 827.723 100.473L829.421 129.404C829.477 130.374 830.309 131.113 831.278 131.056C832.247 130.999 832.987 130.168 832.93 129.198L831.479 104.468L841.937 123.336C842.408 124.185 843.478 124.492 844.327 124.021C845.176 123.551 845.483 122.481 845.012 121.632L834.554 102.764L854.757 117.1C855.327 117.504 856.055 117.521 856.628 117.203C856.851 117.08 857.05 116.905 857.208 116.683C857.769 115.892 857.583 114.794 856.791 114.233V114.233Z" fill="#5E54AC"/>
<path d="M833.156 97.4614C832.605 97.0702 831.878 97.0298 831.287 97.3576L829.956 98.0953L844.327 124.021C845.176 123.551 845.483 122.481 845.012 121.632L834.554 102.764L854.757 117.1C855.327 117.504 856.055 117.521 856.628 117.203C856.851 117.08 857.05 116.905 857.208 116.683C857.77 115.892 857.583 114.794 856.791 114.233L833.156 97.4614Z" fill="#453D81"/>
<path d="M831.828 101.473C829.285 102.882 826.069 101.96 824.659 99.417C823.25 96.8739 824.172 93.6579 826.715 92.2482C829.258 90.8385 832.474 91.7606 833.884 94.3038C835.294 96.847 834.371 100.063 831.828 101.473Z" fill="#F2FAFF"/>
<path d="M826.715 92.2482L831.828 101.473C834.371 100.063 835.294 96.847 833.884 94.3038C832.474 91.7606 829.258 90.8385 826.715 92.2482Z" fill="#C8EAFA"/>
</g>
<g clip-path="url(#clip1)">
<path d="M855.714 390.168C857.637 391.566 872.265 402.193 874.178 403.583L876.663 400.162L869.168 391.065L858.199 386.747L855.975 387.024L855.714 390.168Z" fill="#5C5CCC"/>
<path d="M860.685 383.326L857.733 384.605L858.199 386.747C858.72 387.126 876.143 399.784 876.663 400.162L879.149 396.741C874.948 393.688 865.101 386.534 860.685 383.326Z" fill="#375798"/>
<path d="M804.298 369.97C808.577 385.046 824.591 396.7 840.276 396.109C847.467 395.838 854.3 392.949 858.596 387.035L834.668 365.999L807.267 349.743C802.97 355.657 802.334 363.048 804.298 369.97V369.97Z" fill="#FF3D7D"/>
<path d="M856.288 356.198C849.274 346.702 837.406 340.223 825.587 340.669C818.396 340.94 811.563 343.829 807.267 349.743C808.715 350.795 857.149 385.984 858.596 387.036C860.629 384.238 861.953 380.925 862.43 377.286C863.396 369.924 860.77 362.267 856.288 356.198V356.198Z" fill="#C1126B"/>
<path d="M829.48 395.45C828.566 389.684 823.151 385.749 817.384 386.662C811.617 387.576 807.683 392.991 808.596 398.758C809.509 404.525 814.925 408.46 820.692 407.546C826.459 406.633 830.393 401.217 829.48 395.45Z" fill="#F2D231"/>
<path d="M846.618 378.333L840.837 383.696L836.83 391.805C838.557 391.954 840.333 391.945 842.11 391.733L846.871 386.759L850.039 380.819L850.065 377.186L846.618 378.333Z" fill="#FBF4F4"/>
<path d="M839.776 373.362L833.438 379.89L827.951 389.637C829.39 390.218 830.805 390.673 832.175 391.017L838.661 384.414L843.197 375.847L842.887 371.971L839.776 373.362Z" fill="#FBF4F4"/>
<path d="M850.039 380.819L854.761 377.043L857.969 369.904C857.622 368.149 857.081 366.457 856.406 364.861L850.614 370.747L846.618 378.333C847.815 379.202 848.843 379.949 850.039 380.819Z" fill="#DEE0F6"/>
<path d="M843.197 375.847L849.578 368.944L854.219 360.677C853.468 359.48 852.598 358.275 851.601 357.086L844.865 364.307L839.776 373.362C840.972 374.231 842.001 374.978 843.197 375.847V375.847Z" fill="#DEE0F6"/>
<path d="M843.197 375.847C841.864 377.683 833.518 389.17 832.175 391.017C833.733 391.408 835.291 391.672 836.83 391.805C838.02 390.167 845.425 379.975 846.618 378.333L845.765 375.91L843.197 375.847Z" fill="#FF6B6B"/>
<path d="M842.11 391.733C847.337 391.11 852.1 388.77 855.169 384.546L854.341 380.292L850.039 380.819C847.892 383.774 843.378 389.988 842.11 391.733V391.733Z" fill="#FF6B6B"/>
<path d="M810.695 352.233C806.984 357.341 806.574 364.059 808.924 370.56C812.037 379.17 819.498 386.224 827.951 389.637C828.608 388.733 839.119 374.265 839.776 373.362L827.851 359.198L810.695 352.233Z" fill="#FF6B6B"/>
<path d="M846.618 378.333C847.808 376.695 855.213 366.503 856.406 364.861C855.805 363.44 855.073 362.039 854.218 360.677C852.885 362.513 844.539 374 843.197 375.847C844.394 376.717 845.422 377.464 846.618 378.333V378.333Z" fill="#FF3D7D"/>
<path d="M857.969 369.904C855.822 372.86 851.307 379.074 850.039 380.819C851.75 382.062 853.458 383.303 855.169 384.546C858.244 380.313 858.989 375.056 857.969 369.904Z" fill="#FF3D7D"/>
<path d="M851.6 357.086C845.798 350.168 836.809 345.188 827.576 344.886C820.667 344.66 814.406 347.126 810.695 352.233C811.516 352.829 838.955 372.766 839.776 373.362C840.432 372.458 850.944 357.99 851.6 357.086V357.086Z" fill="#FF3D7D"/>
</g>
<g clip-path="url(#clip2)">
<path d="M904.378 281.528C903.054 282.264 901.536 282.577 900.029 282.426C898.522 282.275 897.096 281.667 895.944 280.684C891.148 276.597 887.127 271.68 884.073 266.168L858.315 219.699C855.259 214.188 853.221 208.173 852.295 201.94C852.072 200.441 852.312 198.911 852.983 197.552C853.653 196.194 854.723 195.072 856.048 194.338C857.373 193.603 858.89 193.291 860.398 193.442C861.905 193.593 863.33 194.201 864.483 195.184C869.279 199.271 873.3 204.188 876.354 209.7L902.112 256.169C905.167 261.68 907.206 267.695 908.131 273.928C908.355 275.427 908.115 276.957 907.444 278.316C906.773 279.674 905.704 280.795 904.378 281.528V281.528Z" fill="#F35244"/>
<path d="M904.378 281.528C903.054 282.264 901.536 282.577 900.029 282.426C898.522 282.275 897.096 281.667 895.944 280.684C891.148 276.597 887.127 271.68 884.073 266.168L859.849 222.467C869.832 231.991 881.996 240.316 896.288 245.661L902.112 256.169C905.167 261.68 907.206 267.696 908.132 273.928C908.355 275.427 908.115 276.957 907.444 278.316C906.773 279.674 905.704 280.795 904.378 281.528V281.528Z" fill="#E64C3F"/>
<path d="M846.342 219.372C847.723 221.862 850.861 222.762 853.352 221.381C855.843 220.001 856.742 216.863 855.362 214.372C853.981 211.881 850.843 210.981 848.352 212.362C845.862 213.743 844.962 216.881 846.342 219.372Z" fill="#34507B"/>
<path d="M878.006 276.495C879.387 278.986 882.525 279.886 885.016 278.505C887.507 277.124 888.407 273.986 887.026 271.496C885.645 269.005 882.507 268.105 880.016 269.486C877.526 270.866 876.626 274.004 878.006 276.495Z" fill="#34507B"/>
<path d="M942.663 222.969C939.69 224.617 936.404 225.623 933.017 225.922L921.291 226.955L917.125 219.439L937.663 213.95L942.663 222.969Z" fill="#FEC9A3"/>
<path d="M922.175 175.372L929.674 188.901L919.151 194.734L911.652 181.205L922.175 175.372Z" fill="#FEC9A3"/>
<path d="M931.924 188.674L909.779 185.696L910.084 181.563L910.435 180.184L911.54 175.848C911.981 174.102 912.802 172.476 913.944 171.084C914.893 169.925 916.051 168.955 917.357 168.222L917.962 167.881C918.826 167.395 919.749 167.02 920.708 166.765C923.028 166.147 925.481 166.241 927.746 167.036C929.107 167.512 930.372 168.224 931.484 169.14C932.604 170.064 933.554 171.176 934.293 172.425C935.163 173.895 935.662 175.554 935.748 177.26C935.833 178.966 935.503 180.667 934.785 182.216L931.924 188.674Z" fill="#34507B"/>
<path d="M931.924 188.674L909.779 185.696L910.084 181.563L910.435 180.184C918.995 179.943 927.433 178.102 935.315 174.757C936.06 177.224 935.871 179.879 934.785 182.216L931.924 188.674Z" fill="#2F486E"/>
<path d="M924.124 181.402L910.084 181.562L911.539 175.848C911.981 174.102 912.803 172.475 913.945 171.083L925.005 174.361C925.867 174.625 926.601 175.199 927.064 175.973C927.527 176.746 927.686 177.664 927.51 178.549C927.361 179.342 926.942 180.059 926.325 180.578C925.708 181.098 924.93 181.389 924.124 181.402V181.402Z" fill="#313B4C"/>
<path d="M908.578 253.654L897.892 255.647L896.121 248.011L893.411 236.32C893.073 234.864 893.219 233.339 893.826 231.973C894.433 230.608 895.469 229.478 896.775 228.754L911.782 220.436L917.615 230.958L905.589 237.624L907.027 245.343L908.578 253.654Z" fill="#34507B"/>
<path d="M908.578 253.653L897.892 255.647L896.121 248.011L907.028 245.343L908.578 253.653Z" fill="#556A8A"/>
<path d="M902.787 198.892C901.676 198.573 900.513 198.476 899.365 198.607C898.216 198.738 897.105 199.094 896.094 199.654L873.727 212.052L879.56 222.575L899.103 211.743L907.435 226.775C908.54 228.769 910.392 230.241 912.583 230.87C914.774 231.498 917.124 231.23 919.118 230.125L922.124 228.459L908.06 203.086C907.499 202.075 906.745 201.184 905.841 200.464C904.936 199.745 903.899 199.21 902.787 198.892V198.892Z" fill="#34507B"/>
<path d="M873.727 212.052L869.818 210.034C869.327 209.78 868.781 209.652 868.228 209.66C867.675 209.668 867.132 209.812 866.649 210.081C865.87 210.512 865.294 211.236 865.049 212.092C864.803 212.949 864.908 213.867 865.34 214.646L872.044 226.741L879.56 222.575L873.727 212.052Z" fill="#D6D6D4"/>
<path d="M897.892 255.647L893.742 255.504C893.154 255.484 892.571 255.62 892.053 255.899C891.536 256.177 891.101 256.588 890.794 257.09C890.487 257.591 890.318 258.165 890.305 258.753C890.293 259.341 890.436 259.922 890.721 260.436C891.04 261.01 891.52 261.477 892.104 261.777C895.071 263.31 898.504 263.681 901.73 262.819L910.408 260.5L908.578 253.653L897.892 255.647Z" fill="#D6D6D4"/>
<path d="M932.174 193.411C935.489 199.391 936.293 206.443 934.408 213.016C932.523 219.589 928.105 225.144 922.124 228.459L912.958 211.923L916.209 210.121C917.739 209.273 918.869 207.852 919.352 206.17C919.834 204.489 919.628 202.684 918.78 201.154C918.149 200.015 917.869 198.715 917.975 197.417L918.318 193.231L922.828 190.731C924.423 189.847 926.303 189.633 928.056 190.135C929.809 190.638 931.29 191.816 932.174 193.411Z" fill="#DE4132"/>
<path d="M923.498 188.394C922.302 189.057 921.418 190.168 921.041 191.483C920.664 192.797 920.825 194.208 921.488 195.404L925.654 202.92L934.674 197.92L930.508 190.404C929.845 189.208 928.734 188.324 927.419 187.948C926.105 187.571 924.694 187.731 923.498 188.394V188.394Z" fill="#F35244"/>
<path d="M933.154 216.449L925.654 202.92L934.674 197.92L942.173 211.45C942.836 212.646 942.997 214.056 942.62 215.371C942.243 216.685 941.359 217.796 940.163 218.459C938.967 219.122 937.557 219.283 936.242 218.906C934.928 218.529 933.817 217.645 933.154 216.449Z" fill="#FEC9A3"/>
<path d="M945.424 219.637L945.918 217.913C946.312 216.541 946.144 215.069 945.452 213.821C944.76 212.573 943.601 211.651 942.229 211.257C940.857 210.864 939.385 211.032 938.136 211.724C936.888 212.415 935.966 213.575 935.572 214.947L935.078 216.67C934.685 218.042 934.853 219.514 935.544 220.762C936.236 222.01 937.396 222.933 938.768 223.326C940.14 223.72 941.612 223.552 942.86 222.86C944.108 222.168 945.031 221.009 945.424 219.637V219.637Z" fill="#34507B"/>
<path d="M952.842 227.152L960.342 240.682L957.335 242.348L949.836 228.819L952.842 227.152Z" fill="#E0E0DE"/>
<path d="M946.323 236.662L956.322 254.701L953.315 256.367L943.316 238.328L946.323 236.662Z" fill="#E0E0DE"/>
<path d="M933.97 235.648L940.636 247.674L937.63 249.341L930.964 237.315L933.97 235.648Z" fill="#E0E0DE"/>
<path d="M962.008 243.688L963.675 246.695L960.668 248.361L959.002 245.355L962.008 243.688Z" fill="#E0E0DE"/>
<path d="M879.74 208.719L885.573 219.242L879.56 222.575L873.727 212.052L879.74 208.719Z" fill="#556A8A"/>
</g>
<defs>
<clipPath id="clip0">
<rect width="60" height="60" fill="white" transform="translate(789 86.0886) rotate(-29)"/>
</clipPath>
<clipPath id="clip1">
<rect width="70" height="70" fill="white" transform="translate(810.95 413.624) rotate(-99)"/>
</clipPath>
<clipPath id="clip2">
<rect width="110" height="110" fill="white" transform="translate(927.208 149) rotate(61)"/>
</clipPath>
</defs>
</svg>
