<svg width="925" height="515" viewBox="0 0 925 515" fill="none" xmlns="http://www.w3.org/2000/svg">
<rect width="925" height="515" fill="white"/>
<path d="M386.75 252C386.383 252 386.083 251.883 385.85 251.65C385.617 251.417 385.5 251.117 385.5 250.75V218.25C385.5 217.883 385.617 217.583 385.85 217.35C386.117 217.117 386.417 217 386.75 217H393.2C393.567 217 393.867 217.117 394.1 217.35C394.367 217.583 394.5 217.883 394.5 218.25V230.3H406.8V218.25C406.8 217.883 406.917 217.583 407.15 217.35C407.383 217.117 407.683 217 408.05 217H414.5C414.867 217 415.167 217.117 415.4 217.35C415.633 217.583 415.75 217.883 415.75 218.25V250.75C415.75 251.117 415.633 251.417 415.4 251.65C415.167 251.883 414.867 252 414.5 252H408.05C407.683 252 407.383 251.883 407.15 251.65C406.917 251.417 406.8 251.117 406.8 250.75V238.3H394.5V250.75C394.5 251.117 394.367 251.417 394.1 251.65C393.867 251.883 393.567 252 393.2 252H386.75ZM423.406 222.25C423.039 222.25 422.739 222.133 422.506 221.9C422.273 221.667 422.156 221.367 422.156 221V216.5C422.156 216.133 422.273 215.833 422.506 215.6C422.739 215.367 423.039 215.25 423.406 215.25H429.406C429.773 215.25 430.073 215.367 430.306 215.6C430.539 215.833 430.656 216.133 430.656 216.5V221C430.656 221.367 430.539 221.667 430.306 221.9C430.073 222.133 429.773 222.25 429.406 222.25H423.406ZM423.456 252C423.089 252 422.789 251.883 422.556 251.65C422.323 251.417 422.206 251.117 422.206 250.75V227.25C422.206 226.883 422.323 226.583 422.556 226.35C422.789 226.117 423.089 226 423.456 226H429.356C429.723 226 430.023 226.117 430.256 226.35C430.489 226.583 430.606 226.883 430.606 227.25V250.75C430.606 251.083 430.489 251.383 430.256 251.65C430.023 251.883 429.723 252 429.356 252H423.456ZM436.163 255.75C435.896 255.75 435.663 255.633 435.463 255.4C435.263 255.2 435.179 254.95 435.212 254.65L436.763 244.85C436.829 244.383 437.013 243.983 437.313 243.65C437.613 243.317 438.029 243.15 438.563 243.15H444.413C444.679 243.15 444.896 243.25 445.063 243.45C445.263 243.617 445.363 243.833 445.363 244.1C445.363 244.333 445.329 244.517 445.263 244.65L441.513 254.35C441.313 254.783 441.079 255.117 440.813 255.35C440.546 255.617 440.163 255.75 439.663 255.75H436.163ZM462.873 252C462.54 252 462.24 251.883 461.973 251.65C461.74 251.383 461.623 251.083 461.623 250.75V218.25C461.623 217.883 461.74 217.583 461.973 217.35C462.24 217.117 462.54 217 462.873 217H469.573C469.94 217 470.24 217.117 470.473 217.35C470.74 217.583 470.873 217.883 470.873 218.25V250.75C470.873 251.117 470.74 251.417 470.473 251.65C470.24 251.883 469.94 252 469.573 252H462.873ZM495.729 252.5C493.962 252.5 492.345 252.167 490.879 251.5C489.445 250.8 488.312 249.867 487.479 248.7C486.679 247.5 486.279 246.183 486.279 244.75C486.279 242.45 487.212 240.6 489.079 239.2C490.979 237.8 493.579 236.833 496.879 236.3L503.129 235.35V234.65C503.129 233.383 502.862 232.45 502.329 231.85C501.795 231.25 500.895 230.95 499.629 230.95C498.862 230.95 498.229 231.083 497.729 231.35C497.229 231.617 496.712 231.983 496.179 232.45C495.712 232.85 495.362 233.117 495.129 233.25C495.029 233.517 494.845 233.65 494.579 233.65H489.129C488.795 233.65 488.512 233.55 488.279 233.35C488.079 233.117 487.995 232.85 488.029 232.55C488.062 231.65 488.495 230.65 489.329 229.55C490.195 228.45 491.495 227.5 493.229 226.7C494.995 225.9 497.162 225.5 499.729 225.5C503.829 225.5 506.862 226.417 508.829 228.25C510.795 230.05 511.779 232.483 511.779 235.55V250.75C511.779 251.083 511.662 251.383 511.429 251.65C511.195 251.883 510.895 252 510.529 252H504.729C504.395 252 504.095 251.883 503.829 251.65C503.595 251.383 503.479 251.083 503.479 250.75V249C502.745 250.033 501.712 250.883 500.379 251.55C499.079 252.183 497.529 252.5 495.729 252.5ZM498.079 246.8C499.612 246.8 500.845 246.3 501.779 245.3C502.745 244.3 503.229 242.833 503.229 240.9V240.2L498.979 240.95C495.979 241.483 494.479 242.533 494.479 244.1C494.479 244.933 494.829 245.6 495.529 246.1C496.229 246.567 497.079 246.8 498.079 246.8ZM518.671 252C518.304 252 518.004 251.883 517.771 251.65C517.537 251.417 517.421 251.117 517.421 250.75V227.25C517.421 226.883 517.537 226.583 517.771 226.35C518.004 226.117 518.304 226 518.671 226H524.121C524.487 226 524.787 226.117 525.021 226.35C525.254 226.583 525.371 226.883 525.371 227.25V228.95C526.137 227.95 527.154 227.133 528.421 226.5C529.721 225.833 531.171 225.5 532.771 225.5C536.437 225.5 538.971 226.933 540.371 229.8C541.171 228.533 542.287 227.5 543.721 226.7C545.154 225.9 546.687 225.5 548.321 225.5C551.054 225.5 553.271 226.433 554.971 228.3C556.704 230.133 557.571 232.883 557.571 236.55V250.75C557.571 251.083 557.454 251.383 557.221 251.65C556.987 251.883 556.687 252 556.321 252H550.521C550.154 252 549.837 251.883 549.571 251.65C549.337 251.417 549.221 251.117 549.221 250.75V236.9C549.221 235.233 548.871 234.033 548.171 233.3C547.504 232.567 546.587 232.2 545.421 232.2C544.354 232.2 543.471 232.583 542.771 233.35C542.071 234.083 541.721 235.267 541.721 236.9V250.75C541.721 251.083 541.604 251.383 541.371 251.65C541.137 251.883 540.837 252 540.471 252H534.671C534.304 252 534.004 251.883 533.771 251.65C533.537 251.417 533.421 251.117 533.421 250.75V236.9C533.421 235.267 533.054 234.083 532.321 233.35C531.621 232.583 530.721 232.2 529.621 232.2C528.554 232.2 527.654 232.583 526.921 233.35C526.221 234.083 525.871 235.25 525.871 236.85V250.75C525.871 251.083 525.754 251.383 525.521 251.65C525.287 251.883 524.987 252 524.621 252H518.671ZM571.146 252C570.88 252 570.63 251.9 570.396 251.7C570.196 251.467 570.096 251.217 570.096 250.95C570.096 250.75 570.113 250.6 570.146 250.5L581.896 218.4C581.996 218 582.213 217.667 582.546 217.4C582.88 217.133 583.313 217 583.846 217H591.246C591.78 217 592.213 217.133 592.546 217.4C592.88 217.667 593.096 218 593.196 218.4L604.896 250.5L604.996 250.95C604.996 251.217 604.88 251.467 604.646 251.7C604.446 251.9 604.196 252 603.896 252H597.746C596.946 252 596.413 251.65 596.146 250.95L594.196 245.85H580.846L578.946 250.95C578.68 251.65 578.13 252 577.296 252H571.146ZM592.196 238.65L587.546 225.45L582.896 238.65H592.196ZM609.638 252C609.304 252 609.004 251.883 608.737 251.65C608.504 251.383 608.388 251.083 608.388 250.75V217.75C608.388 217.383 608.504 217.083 608.737 216.85C609.004 216.617 609.304 216.5 609.638 216.5H615.538C615.904 216.5 616.204 216.617 616.438 216.85C616.671 217.083 616.788 217.383 616.788 217.75V250.75C616.788 251.117 616.671 251.417 616.438 251.65C616.204 251.883 615.904 252 615.538 252H609.638ZM634.694 252.5C630.694 252.5 627.544 251.417 625.244 249.25C622.944 247.083 621.744 243.933 621.644 239.8V238.05C621.777 234.117 622.994 231.05 625.294 228.85C627.627 226.617 630.744 225.5 634.644 225.5C637.477 225.5 639.861 226.083 641.794 227.25C643.761 228.383 645.227 229.95 646.194 231.95C647.194 233.95 647.694 236.25 647.694 238.85V240.05C647.694 240.383 647.577 240.683 647.344 240.95C647.111 241.183 646.811 241.3 646.444 241.3H630.444V241.65C630.511 243.217 630.894 244.483 631.594 245.45C632.294 246.417 633.311 246.9 634.644 246.9C635.477 246.9 636.161 246.733 636.694 246.4C637.227 246.033 637.711 245.6 638.144 245.1C638.444 244.733 638.677 244.517 638.844 244.45C639.044 244.35 639.344 244.3 639.744 244.3H645.944C646.244 244.3 646.494 244.4 646.694 244.6C646.927 244.767 647.044 245 647.044 245.3C647.044 246.167 646.544 247.167 645.544 248.3C644.577 249.433 643.161 250.417 641.294 251.25C639.427 252.083 637.227 252.5 634.694 252.5ZM638.894 236.35V236.25C638.894 234.617 638.511 233.333 637.744 232.4C637.011 231.433 635.977 230.95 634.644 230.95C633.344 230.95 632.311 231.433 631.544 232.4C630.811 233.333 630.444 234.617 630.444 236.25V236.35H638.894ZM650.502 252C650.202 252 649.935 251.9 649.702 251.7C649.502 251.467 649.402 251.183 649.402 250.85C649.402 250.583 649.485 250.333 649.652 250.1L658.002 238.65L650.402 227.9C650.202 227.633 650.102 227.367 650.102 227.1C650.102 226.8 650.218 226.55 650.452 226.35C650.685 226.117 650.952 226 651.252 226H657.352C657.952 226 658.435 226.283 658.802 226.85L663.452 233.25L668.052 226.9C668.252 226.633 668.452 226.417 668.652 226.25C668.852 226.083 669.152 226 669.552 226H675.402C675.702 226 675.952 226.117 676.152 226.35C676.385 226.55 676.502 226.8 676.502 227.1C676.502 227.433 676.418 227.7 676.252 227.9L668.452 238.65L676.952 250.1C677.118 250.333 677.202 250.583 677.202 250.85C677.202 251.183 677.085 251.467 676.852 251.7C676.652 251.9 676.402 252 676.102 252H669.702C669.135 252 668.668 251.733 668.302 251.2L663.252 244.35L658.152 251.2C657.952 251.467 657.752 251.667 657.552 251.8C657.352 251.933 657.085 252 656.752 252H650.502ZM681.946 252C681.613 252 681.313 251.883 681.046 251.65C680.813 251.383 680.696 251.083 680.696 250.75V244.4C680.696 244.033 680.813 243.733 681.046 243.5C681.313 243.267 681.613 243.15 681.946 243.15H688.296C688.663 243.15 688.963 243.267 689.196 243.5C689.429 243.733 689.546 244.033 689.546 244.4V250.75C689.546 251.083 689.429 251.383 689.196 251.65C688.963 251.883 688.663 252 688.296 252H681.946Z" fill="black"/>
<path d="M386.4 301C386.133 301 385.907 300.92 385.72 300.76C385.56 300.573 385.48 300.347 385.48 300.08V273.96C385.48 273.667 385.56 273.44 385.72 273.28C385.907 273.093 386.133 273 386.4 273H402.72C403.013 273 403.24 273.093 403.4 273.28C403.587 273.44 403.68 273.667 403.68 273.96V275.56C403.68 275.827 403.587 276.053 403.4 276.24C403.24 276.4 403.013 276.48 402.72 276.48H389.36V285.8H401.92C402.213 285.8 402.44 285.893 402.6 286.08C402.787 286.24 402.88 286.467 402.88 286.76V288.36C402.88 288.627 402.787 288.853 402.6 289.04C402.413 289.2 402.187 289.28 401.92 289.28H389.36V300.08C389.36 300.347 389.267 300.573 389.08 300.76C388.893 300.92 388.667 301 388.4 301H386.4ZM408.693 301C408.426 301 408.199 300.92 408.013 300.76C407.853 300.573 407.773 300.347 407.773 300.08V281.16C407.773 280.893 407.853 280.667 408.013 280.48C408.199 280.293 408.426 280.2 408.693 280.2H410.533C410.799 280.2 411.026 280.293 411.213 280.48C411.399 280.667 411.493 280.893 411.493 281.16V282.92C412.586 281.107 414.453 280.2 417.093 280.2H418.653C418.919 280.2 419.133 280.293 419.293 280.48C419.479 280.64 419.573 280.853 419.573 281.12V282.76C419.573 283.027 419.479 283.24 419.293 283.4C419.133 283.56 418.919 283.64 418.653 283.64H416.253C414.813 283.64 413.679 284.067 412.853 284.92C412.026 285.747 411.613 286.88 411.613 288.32V300.08C411.613 300.347 411.519 300.573 411.333 300.76C411.146 300.92 410.919 301 410.653 301H408.693ZM431.097 301.4C428.164 301.4 425.884 300.573 424.257 298.92C422.657 297.267 421.804 295.067 421.697 292.32L421.657 290.6L421.697 288.88C421.804 286.16 422.671 283.973 424.297 282.32C425.924 280.64 428.191 279.8 431.097 279.8C434.004 279.8 436.271 280.64 437.897 282.32C439.524 283.973 440.391 286.16 440.497 288.88C440.524 289.173 440.537 289.747 440.537 290.6C440.537 291.453 440.524 292.027 440.497 292.32C440.391 295.067 439.524 297.267 437.897 298.92C436.297 300.573 434.031 301.4 431.097 301.4ZM431.097 298.32C432.777 298.32 434.097 297.787 435.057 296.72C436.044 295.653 436.577 294.12 436.657 292.12C436.684 291.853 436.697 291.347 436.697 290.6C436.697 289.853 436.684 289.347 436.657 289.08C436.577 287.08 436.044 285.547 435.057 284.48C434.097 283.413 432.777 282.88 431.097 282.88C429.417 282.88 428.084 283.413 427.097 284.48C426.111 285.547 425.591 287.08 425.537 289.08L425.497 290.6L425.537 292.12C425.591 294.12 426.111 295.653 427.097 296.72C428.084 297.787 429.417 298.32 431.097 298.32ZM446.466 301C446.199 301 445.973 300.92 445.786 300.76C445.626 300.573 445.546 300.347 445.546 300.08V281.12C445.546 280.853 445.626 280.64 445.786 280.48C445.973 280.293 446.199 280.2 446.466 280.2H448.346C448.613 280.2 448.826 280.293 448.986 280.48C449.173 280.64 449.266 280.853 449.266 281.12V282.88C450.039 281.893 450.946 281.133 451.986 280.6C453.053 280.067 454.373 279.8 455.946 279.8C458.506 279.8 460.493 280.627 461.906 282.28C463.346 283.907 464.066 286.08 464.066 288.8V300.08C464.066 300.347 463.973 300.573 463.786 300.76C463.626 300.92 463.413 301 463.146 301H461.146C460.879 301 460.653 300.92 460.466 300.76C460.306 300.573 460.226 300.347 460.226 300.08V289C460.226 287.107 459.759 285.64 458.826 284.6C457.919 283.56 456.599 283.04 454.866 283.04C453.186 283.04 451.853 283.573 450.866 284.64C449.879 285.68 449.386 287.133 449.386 289V300.08C449.386 300.347 449.293 300.573 449.106 300.76C448.946 300.92 448.733 301 448.466 301H446.466ZM477.65 301C473.437 301 471.33 298.653 471.33 293.96V283.4H468.21C467.944 283.4 467.717 283.32 467.53 283.16C467.37 282.973 467.29 282.747 467.29 282.48V281.12C467.29 280.853 467.37 280.64 467.53 280.48C467.717 280.293 467.944 280.2 468.21 280.2H471.33V273.52C471.33 273.253 471.41 273.04 471.57 272.88C471.757 272.693 471.984 272.6 472.25 272.6H474.13C474.397 272.6 474.61 272.693 474.77 272.88C474.957 273.04 475.05 273.253 475.05 273.52V280.2H480.01C480.277 280.2 480.49 280.293 480.65 280.48C480.837 280.64 480.93 280.853 480.93 281.12V282.48C480.93 282.747 480.837 282.973 480.65 283.16C480.49 283.32 480.277 283.4 480.01 283.4H475.05V293.68C475.05 295.013 475.277 296.027 475.73 296.72C476.184 297.387 476.93 297.72 477.97 297.72H480.41C480.677 297.72 480.89 297.813 481.05 298C481.237 298.16 481.33 298.373 481.33 298.64V300.08C481.33 300.347 481.237 300.573 481.05 300.76C480.89 300.92 480.677 301 480.41 301H477.65ZM493.475 301.4C490.729 301.4 488.529 300.56 486.875 298.88C485.249 297.173 484.355 294.853 484.195 291.92L484.155 290.56L484.195 289.24C484.382 286.36 485.289 284.067 486.915 282.36C488.569 280.653 490.742 279.8 493.435 279.8C496.395 279.8 498.689 280.747 500.315 282.64C501.942 284.507 502.755 287.04 502.755 290.24V290.92C502.755 291.187 502.662 291.413 502.475 291.6C502.315 291.76 502.102 291.84 501.835 291.84H487.995V292.2C488.075 293.933 488.595 295.413 489.555 296.64C490.542 297.84 491.835 298.44 493.435 298.44C494.662 298.44 495.662 298.2 496.435 297.72C497.235 297.213 497.822 296.693 498.195 296.16C498.435 295.84 498.609 295.653 498.715 295.6C498.849 295.52 499.075 295.48 499.395 295.48H501.355C501.595 295.48 501.795 295.547 501.955 295.68C502.115 295.813 502.195 296 502.195 296.24C502.195 296.827 501.822 297.533 501.075 298.36C500.355 299.187 499.329 299.907 497.995 300.52C496.689 301.107 495.182 301.4 493.475 301.4ZM498.955 289.08V288.96C498.955 287.12 498.449 285.627 497.435 284.48C496.449 283.307 495.115 282.72 493.435 282.72C491.755 282.72 490.422 283.307 489.435 284.48C488.475 285.627 487.995 287.12 487.995 288.96V289.08H498.955ZM508.458 301C508.191 301 507.965 300.92 507.778 300.76C507.618 300.573 507.538 300.347 507.538 300.08V281.12C507.538 280.853 507.618 280.64 507.778 280.48C507.965 280.293 508.191 280.2 508.458 280.2H510.338C510.605 280.2 510.818 280.293 510.978 280.48C511.165 280.64 511.258 280.853 511.258 281.12V282.88C512.031 281.893 512.938 281.133 513.978 280.6C515.045 280.067 516.365 279.8 517.938 279.8C520.498 279.8 522.485 280.627 523.898 282.28C525.338 283.907 526.058 286.08 526.058 288.8V300.08C526.058 300.347 525.965 300.573 525.778 300.76C525.618 300.92 525.405 301 525.138 301H523.138C522.871 301 522.645 300.92 522.458 300.76C522.298 300.573 522.218 300.347 522.218 300.08V289C522.218 287.107 521.751 285.64 520.818 284.6C519.911 283.56 518.591 283.04 516.858 283.04C515.178 283.04 513.845 283.573 512.858 284.64C511.871 285.68 511.378 287.133 511.378 289V300.08C511.378 300.347 511.285 300.573 511.098 300.76C510.938 300.92 510.725 301 510.458 301H508.458ZM539.396 301.4C536.623 301.4 534.529 300.493 533.116 298.68C531.703 296.867 530.956 294.573 530.876 291.8L530.836 290.6L530.876 289.4C530.956 286.653 531.703 284.373 533.116 282.56C534.529 280.72 536.623 279.8 539.396 279.8C542.143 279.8 544.303 280.773 545.876 282.72V273.52C545.876 273.253 545.956 273.04 546.116 272.88C546.303 272.693 546.529 272.6 546.796 272.6H548.716C548.983 272.6 549.196 272.693 549.356 272.88C549.543 273.04 549.636 273.253 549.636 273.52V300.08C549.636 300.347 549.543 300.573 549.356 300.76C549.196 300.92 548.983 301 548.716 301H546.916C546.649 301 546.423 300.92 546.236 300.76C546.076 300.573 545.996 300.347 545.996 300.08V298.4C544.449 300.4 542.249 301.4 539.396 301.4ZM540.236 298.16C542.076 298.16 543.449 297.56 544.356 296.36C545.289 295.133 545.796 293.68 545.876 292C545.903 291.707 545.916 291.2 545.916 290.48C545.916 289.733 545.903 289.213 545.876 288.92C545.823 287.347 545.316 285.973 544.356 284.8C543.396 283.627 542.023 283.04 540.236 283.04C538.343 283.04 536.956 283.627 536.076 284.8C535.223 285.973 534.756 287.52 534.676 289.44L534.636 290.6C534.636 295.64 536.503 298.16 540.236 298.16ZM572.99 301.4C570.216 301.4 568.123 300.493 566.71 298.68C565.296 296.867 564.55 294.573 564.47 291.8L564.43 290.6L564.47 289.4C564.55 286.653 565.296 284.373 566.71 282.56C568.123 280.72 570.216 279.8 572.99 279.8C575.736 279.8 577.896 280.773 579.47 282.72V273.52C579.47 273.253 579.55 273.04 579.71 272.88C579.896 272.693 580.123 272.6 580.39 272.6H582.31C582.576 272.6 582.79 272.693 582.95 272.88C583.136 273.04 583.23 273.253 583.23 273.52V300.08C583.23 300.347 583.136 300.573 582.95 300.76C582.79 300.92 582.576 301 582.31 301H580.51C580.243 301 580.016 300.92 579.83 300.76C579.67 300.573 579.59 300.347 579.59 300.08V298.4C578.043 300.4 575.843 301.4 572.99 301.4ZM573.83 298.16C575.67 298.16 577.043 297.56 577.95 296.36C578.883 295.133 579.39 293.68 579.47 292C579.496 291.707 579.51 291.2 579.51 290.48C579.51 289.733 579.496 289.213 579.47 288.92C579.416 287.347 578.91 285.973 577.95 284.8C576.99 283.627 575.616 283.04 573.83 283.04C571.936 283.04 570.55 283.627 569.67 284.8C568.816 285.973 568.35 287.52 568.27 289.44L568.23 290.6C568.23 295.64 570.096 298.16 573.83 298.16ZM597.499 301.4C594.752 301.4 592.552 300.56 590.899 298.88C589.272 297.173 588.379 294.853 588.219 291.92L588.179 290.56L588.219 289.24C588.405 286.36 589.312 284.067 590.939 282.36C592.592 280.653 594.765 279.8 597.459 279.8C600.419 279.8 602.712 280.747 604.339 282.64C605.965 284.507 606.779 287.04 606.779 290.24V290.92C606.779 291.187 606.685 291.413 606.499 291.6C606.339 291.76 606.125 291.84 605.859 291.84H592.019V292.2C592.099 293.933 592.619 295.413 593.579 296.64C594.565 297.84 595.859 298.44 597.459 298.44C598.685 298.44 599.685 298.2 600.459 297.72C601.259 297.213 601.845 296.693 602.219 296.16C602.459 295.84 602.632 295.653 602.739 295.6C602.872 295.52 603.099 295.48 603.419 295.48H605.379C605.619 295.48 605.819 295.547 605.979 295.68C606.139 295.813 606.219 296 606.219 296.24C606.219 296.827 605.845 297.533 605.099 298.36C604.379 299.187 603.352 299.907 602.019 300.52C600.712 301.107 599.205 301.4 597.499 301.4ZM602.979 289.08V288.96C602.979 287.12 602.472 285.627 601.459 284.48C600.472 283.307 599.139 282.72 597.459 282.72C595.779 282.72 594.445 283.307 593.459 284.48C592.499 285.627 592.019 287.12 592.019 288.96V289.08H602.979ZM618.098 301C617.405 301 616.912 300.667 616.618 300L609.218 281.44L609.138 281.04C609.138 280.8 609.218 280.6 609.378 280.44C609.538 280.28 609.738 280.2 609.978 280.2H611.898C612.352 280.2 612.685 280.427 612.898 280.88L618.978 296.64L625.058 280.88C625.298 280.427 625.618 280.2 626.018 280.2H627.978C628.192 280.2 628.378 280.28 628.538 280.44C628.725 280.6 628.818 280.8 628.818 281.04L628.738 281.44L621.298 300C621.005 300.667 620.512 301 619.818 301H618.098ZM640.585 301.4C637.838 301.4 635.638 300.56 633.985 298.88C632.358 297.173 631.465 294.853 631.305 291.92L631.265 290.56L631.305 289.24C631.491 286.36 632.398 284.067 634.025 282.36C635.678 280.653 637.851 279.8 640.545 279.8C643.505 279.8 645.798 280.747 647.425 282.64C649.051 284.507 649.865 287.04 649.865 290.24V290.92C649.865 291.187 649.771 291.413 649.585 291.6C649.425 291.76 649.211 291.84 648.945 291.84H635.105V292.2C635.185 293.933 635.705 295.413 636.665 296.64C637.651 297.84 638.945 298.44 640.545 298.44C641.771 298.44 642.771 298.2 643.545 297.72C644.345 297.213 644.931 296.693 645.305 296.16C645.545 295.84 645.718 295.653 645.825 295.6C645.958 295.52 646.185 295.48 646.505 295.48H648.465C648.705 295.48 648.905 295.547 649.065 295.68C649.225 295.813 649.305 296 649.305 296.24C649.305 296.827 648.931 297.533 648.185 298.36C647.465 299.187 646.438 299.907 645.105 300.52C643.798 301.107 642.291 301.4 640.585 301.4ZM646.065 289.08V288.96C646.065 287.12 645.558 285.627 644.545 284.48C643.558 283.307 642.225 282.72 640.545 282.72C638.865 282.72 637.531 283.307 636.545 284.48C635.585 285.627 635.105 287.12 635.105 288.96V289.08H646.065ZM655.608 301C655.341 301 655.114 300.92 654.928 300.76C654.768 300.573 654.688 300.347 654.688 300.08V273.52C654.688 273.253 654.768 273.04 654.928 272.88C655.114 272.693 655.341 272.6 655.608 272.6H657.488C657.754 272.6 657.968 272.693 658.128 272.88C658.314 273.04 658.408 273.253 658.408 273.52V300.08C658.408 300.347 658.314 300.573 658.128 300.76C657.968 300.92 657.754 301 657.488 301H655.608ZM672.894 301.4C669.961 301.4 667.681 300.573 666.054 298.92C664.454 297.267 663.601 295.067 663.494 292.32L663.454 290.6L663.494 288.88C663.601 286.16 664.467 283.973 666.094 282.32C667.721 280.64 669.987 279.8 672.894 279.8C675.801 279.8 678.067 280.64 679.694 282.32C681.321 283.973 682.187 286.16 682.294 288.88C682.321 289.173 682.334 289.747 682.334 290.6C682.334 291.453 682.321 292.027 682.294 292.32C682.187 295.067 681.321 297.267 679.694 298.92C678.094 300.573 675.827 301.4 672.894 301.4ZM672.894 298.32C674.574 298.32 675.894 297.787 676.854 296.72C677.841 295.653 678.374 294.12 678.454 292.12C678.481 291.853 678.494 291.347 678.494 290.6C678.494 289.853 678.481 289.347 678.454 289.08C678.374 287.08 677.841 285.547 676.854 284.48C675.894 283.413 674.574 282.88 672.894 282.88C671.214 282.88 669.881 283.413 668.894 284.48C667.907 285.547 667.387 287.08 667.334 289.08L667.294 290.6L667.334 292.12C667.387 294.12 667.907 295.653 668.894 296.72C669.881 297.787 671.214 298.32 672.894 298.32ZM688.303 308.6C688.036 308.6 687.809 308.507 687.623 308.32C687.463 308.16 687.383 307.947 687.383 307.68V281.12C687.383 280.853 687.463 280.64 687.623 280.48C687.809 280.293 688.036 280.2 688.303 280.2H690.143C690.409 280.2 690.623 280.293 690.783 280.48C690.969 280.64 691.063 280.853 691.063 281.12V282.88C692.556 280.827 694.743 279.8 697.623 279.8C700.423 279.8 702.516 280.68 703.903 282.44C705.316 284.2 706.076 286.467 706.183 289.24C706.209 289.533 706.223 289.987 706.223 290.6C706.223 291.213 706.209 291.667 706.183 291.96C706.076 294.707 705.316 296.973 703.903 298.76C702.489 300.52 700.396 301.4 697.623 301.4C694.849 301.4 692.689 300.4 691.143 298.4V307.68C691.143 307.947 691.063 308.16 690.903 308.32C690.743 308.507 690.529 308.6 690.263 308.6H688.303ZM696.783 298.16C698.676 298.16 700.049 297.573 700.903 296.4C701.783 295.227 702.263 293.68 702.343 291.76C702.369 291.493 702.383 291.107 702.383 290.6C702.383 285.56 700.516 283.04 696.783 283.04C694.943 283.04 693.556 283.653 692.623 284.88C691.716 286.08 691.223 287.52 691.143 289.2L691.103 290.72L691.143 292.28C691.196 293.853 691.703 295.227 692.663 296.4C693.623 297.573 694.996 298.16 696.783 298.16ZM719.491 301.4C716.744 301.4 714.544 300.56 712.891 298.88C711.264 297.173 710.371 294.853 710.211 291.92L710.171 290.56L710.211 289.24C710.398 286.36 711.304 284.067 712.931 282.36C714.584 280.653 716.758 279.8 719.451 279.8C722.411 279.8 724.704 280.747 726.331 282.64C727.958 284.507 728.771 287.04 728.771 290.24V290.92C728.771 291.187 728.678 291.413 728.491 291.6C728.331 291.76 728.118 291.84 727.851 291.84H714.011V292.2C714.091 293.933 714.611 295.413 715.571 296.64C716.558 297.84 717.851 298.44 719.451 298.44C720.678 298.44 721.678 298.2 722.451 297.72C723.251 297.213 723.838 296.693 724.211 296.16C724.451 295.84 724.624 295.653 724.731 295.6C724.864 295.52 725.091 295.48 725.411 295.48H727.371C727.611 295.48 727.811 295.547 727.971 295.68C728.131 295.813 728.211 296 728.211 296.24C728.211 296.827 727.838 297.533 727.091 298.36C726.371 299.187 725.344 299.907 724.011 300.52C722.704 301.107 721.198 301.4 719.491 301.4ZM724.971 289.08V288.96C724.971 287.12 724.464 285.627 723.451 284.48C722.464 283.307 721.131 282.72 719.451 282.72C717.771 282.72 716.438 283.307 715.451 284.48C714.491 285.627 714.011 287.12 714.011 288.96V289.08H724.971ZM734.474 301C734.207 301 733.98 300.92 733.794 300.76C733.634 300.573 733.554 300.347 733.554 300.08V281.16C733.554 280.893 733.634 280.667 733.794 280.48C733.98 280.293 734.207 280.2 734.474 280.2H736.314C736.58 280.2 736.807 280.293 736.994 280.48C737.18 280.667 737.274 280.893 737.274 281.16V282.92C738.367 281.107 740.234 280.2 742.874 280.2H744.434C744.7 280.2 744.914 280.293 745.074 280.48C745.26 280.64 745.354 280.853 745.354 281.12V282.76C745.354 283.027 745.26 283.24 745.074 283.4C744.914 283.56 744.7 283.64 744.434 283.64H742.034C740.594 283.64 739.46 284.067 738.634 284.92C737.807 285.747 737.394 286.88 737.394 288.32V300.08C737.394 300.347 737.3 300.573 737.114 300.76C736.927 300.92 736.7 301 736.434 301H734.474Z" fill="black"/>
<path fill-rule="evenodd" clip-rule="evenodd" d="M293.833 376.963C298.529 376.738 296.64 368.579 296.303 365.582C292.586 354.638 293.46 342.698 291.998 331.226C291.087 320.518 289.916 309.843 288.932 299.142C286.999 277.422 273.114 233.204 257.27 226.093C255.274 217.393 247.03 209.272 236.6 209.272C229.486 200.907 220.924 195.019 209.941 196.208C205.403 196.413 201.001 201.195 196.653 202.118C194.218 202.452 172.609 201.593 168.28 204.147C165.265 205.685 162.543 208.527 163.43 212.145C164.844 216.529 160.449 211.786 151.279 216.464C132.58 227.621 143.753 242.545 144.249 243.008C132.58 259.136 122.381 272.22 117.662 291.934C114.603 306.569 114.948 321.678 112.385 336.389C111.48 341.49 110.092 346.416 108.59 351.369C106.963 357.852 106.171 374.009 105.274 374.154C103.64 374.557 106.218 377.891 107.95 377.893C155.965 385.805 204.735 378.221 253.008 376.982C266.612 376.512 280.23 376.404 293.833 376.963Z" fill="white"/>
<path fill-rule="evenodd" clip-rule="evenodd" d="M221.06 244.431C221.082 244.213 221.379 244.213 221.402 244.431L221.741 247.682C222.153 251.652 222.55 255.615 222.838 259.604C223.197 264.578 223.437 269.551 223.553 274.536C223.956 291.899 224.036 309.27 224.07 326.637C226.434 326.474 228.799 326.318 231.164 326.166C232.769 326.063 234.375 325.964 235.98 325.867L240.073 325.621V325.621L241.758 325.518C242.897 325.448 244.191 325.163 244.987 326.165C245.306 326.566 245.465 327.088 245.168 327.564C244.483 328.662 243.43 328.624 242.239 328.671C241.116 328.717 239.993 328.761 238.869 328.804C236.462 328.897 234.054 328.984 231.646 329.051C229.119 329.122 226.593 329.179 224.067 329.222C224.041 336.553 223.736 343.876 223.406 351.199L223.256 354.495C222.852 363.407 222.417 372.327 221.8 381.228C221.749 381.957 220.712 381.955 220.661 381.228C219.966 371.205 219.507 361.16 219.053 351.123C218.723 343.846 218.531 336.567 218.439 329.287C218.105 329.289 217.771 329.293 217.438 329.295C207.956 329.336 198.476 329.377 188.994 329.288C189.01 329.307 189.026 329.326 189.036 329.35C189.722 330.959 189.788 333.013 189.771 334.74C189.752 336.72 189.483 338.677 189.024 340.603C187.379 347.503 183.135 353.683 178.302 358.792L178.144 358.958C177.005 360.155 175.697 361.357 174.997 362.881C174.282 364.438 174.034 366.258 173.681 367.93L173.64 368.122L172.26 374.452C171.822 376.463 171.697 379.395 170.095 380.846C168.601 382.199 166.62 381.492 165.917 379.75C165.368 378.39 165.915 376.896 166.24 375.536L168.789 364.893C169.208 363.157 169.666 361.41 170.57 359.85C171.495 358.253 172.853 357.096 174.238 355.911C176.861 353.668 179.268 351.1 181.305 348.319C183.34 345.54 185.08 342.476 186.3 339.255C186.91 337.642 187.411 335.966 187.756 334.277C188.084 332.674 188.081 331.014 188.433 329.429C188.457 329.319 188.55 329.244 188.656 329.211C188.631 329.14 188.67 329.044 188.769 329.038L196.524 328.543C203.417 328.101 210.31 327.648 217.197 327.131L218.414 327.043V327.043C218.319 317.33 218.399 307.615 218.576 297.898C218.738 288.987 218.741 280.074 219.008 271.164C219.141 266.743 219.427 262.331 219.745 257.918C220.071 253.405 220.592 248.931 221.06 244.431ZM148.248 296.097C148.165 295.603 148.792 295.296 149.08 295.749C152.382 300.919 153.975 306.535 154.646 312.586C155.238 317.926 155.064 323.343 154.769 328.697C154.454 334.407 154.086 340.116 153.715 345.824L153.144 354.576V354.576L151.712 376.517C151.609 378.087 151.251 379.514 149.89 380.244C149.718 380.387 149.539 380.515 149.329 380.626C148.594 381.016 147.62 380.819 147.195 380.07L147.365 380.181C147.514 380.274 147.347 380.144 146.865 379.793L146.456 379.267V379.267C146.159 378.823 145.969 378.387 145.893 377.86C145.774 377.04 145.928 376.142 145.982 375.318L146.921 360.93V360.93C147.651 349.745 148.503 338.563 149.146 327.372C149.445 322.156 149.655 316.936 149.513 311.711C149.372 306.515 149.105 301.231 148.248 296.097ZM176.813 199.783L176.996 199.752C183.555 198.67 190.687 198.872 196.681 202.013C196.73 202.039 196.708 202.121 196.652 202.118L194.723 202.042C188.615 201.804 182.526 201.664 176.521 203.089L175.906 203.236C173.743 203.76 171.485 204.402 169.748 205.821C168.087 207.177 167.261 209.269 166.466 211.196L166.359 211.45C165.553 213.352 164.532 215.157 162.764 216.346C160.474 217.887 157.72 217.698 155.094 217.907C150.471 218.276 146.692 221.605 144.811 225.678C143.673 228.144 143.187 230.909 143.091 233.606C143.041 234.979 143.034 236.405 143.218 237.769C143.277 238.206 143.82 239.794 144.097 239.756C144.712 239.672 145.274 239.99 145.466 240.478C146.985 239.021 148.547 237.605 150.16 236.24C154.181 232.838 158.512 229.756 163.073 227.106C166.553 225.084 170.225 223.081 174.027 221.567C173.726 221.56 173.429 221.62 173.141 221.768C173.015 221.834 172.89 221.677 172.99 221.573C174.187 220.321 175.622 220.143 177.068 220.477C177.376 220.379 177.685 220.285 177.995 220.195C178.149 220.151 178.226 220.362 178.1 220.444L177.745 220.669V220.669C179.323 221.194 180.871 222.226 182.098 223.04C185.62 225.379 188.72 228.237 191.863 231.043L192.435 231.551C195.201 234.005 198.038 236.39 201.181 238.358C202.826 239.389 204.555 240.342 206.367 241.051C207.922 241.659 210.453 242.042 211.182 243.674C211.829 244.455 211.558 245.452 210.8 245.978C209.522 247.376 206.965 246.473 205.441 245.891C203.605 245.189 201.826 244.345 200.129 243.356C196.834 241.435 193.797 239.046 190.967 236.505C188.012 233.851 185.225 231.032 182.351 228.294C181.105 227.108 179.889 225.895 178.642 224.71L178.015 224.121C177.379 223.528 176.472 222.603 175.502 222.044C173.675 223.126 171.82 224.164 170.01 225.275C167.483 226.825 165.03 228.487 162.615 230.203C157.967 233.507 153.561 237.208 149.472 241.175C141.971 248.45 135.581 256.758 129.998 265.554L129.574 266.225C126.402 271.26 123.402 276.457 121.275 282.02C118.935 288.142 117.797 294.58 117.178 301.078C116.565 307.53 116.358 314.015 115.672 320.461C114.968 327.072 113.582 333.537 112.006 339.99L111.63 341.52C110.204 347.299 108.732 353.078 107.999 358.993C107.607 362.153 107.372 365.356 107.425 368.542C107.478 371.746 107.985 374.879 108.394 378.049C108.551 379.264 107.348 380.277 106.271 380.438C105.033 380.623 103.969 379.838 103.585 378.696C102.385 375.134 102.167 371.197 102.205 367.458C102.242 363.663 102.73 359.893 103.416 356.163C104.766 348.826 106.848 341.641 108.59 334.392C110.125 328.003 111.156 321.602 111.711 315.057C112.287 308.266 112.633 301.453 113.685 294.711C114.723 288.055 116.676 281.698 119.622 275.629C122.304 270.103 125.648 264.902 129.153 259.861C133.41 253.74 138.085 247.915 143.311 242.607C142.842 242.587 142.36 242.436 141.917 242.162C140.563 241.323 139.932 239.681 139.738 238.183C139.284 234.676 139.394 231.016 140.302 227.588C141.766 222.058 145.566 217.144 151.074 215.151C152.492 214.638 153.999 214.451 155.501 214.414C156.927 214.379 158.484 214.563 159.86 214.114C162.049 213.399 162.988 210.837 163.81 208.895L163.848 208.806C164.902 206.332 166.168 204.211 168.451 202.665C170.887 201.017 173.939 200.267 176.813 199.783V199.783ZM239.131 209.569C241.102 208.89 243.566 209.506 245.494 210.1C247.641 210.761 249.625 211.979 251.326 213.425C253.121 214.951 254.604 216.834 255.652 218.938L255.752 219.141C256.71 221.093 257.8 223.772 257.317 225.917C257.303 225.978 257.287 226.036 257.269 226.093C261.18 228.005 264.791 230.4 267.936 233.436C271.598 236.971 274.698 240.993 277.322 245.338C287.744 262.597 289.578 283.325 290.809 303.007L291.116 307.998C291.784 318.774 292.566 329.525 294.598 340.153L294.746 340.92C296.918 352.047 300.027 363.259 299.712 374.674C299.617 378.094 294.529 378.071 294.382 374.674C293.826 361.888 290.823 349.544 288.789 336.958C285.21 314.816 287.003 291.989 281.933 270.068C279.943 261.466 276.861 253.121 272.459 245.442C270.285 241.649 267.797 237.984 264.883 234.711C262.376 231.895 259.77 229.185 256.841 226.818C255.904 227.75 254.034 227.275 253.545 225.917C253.209 224.983 253.307 223.892 253.091 222.914C252.891 222.007 252.616 221.108 252.248 220.253C251.516 218.55 250.441 216.915 249.2 215.537C247.86 214.047 246.319 212.81 244.596 211.788C242.86 210.759 240.962 210.452 239.131 209.7C239.07 209.675 239.064 209.593 239.131 209.569ZM246.789 327.905C246.792 327.815 246.898 327.773 246.964 327.833C247.655 328.465 248.072 329.371 248.581 330.148C249.167 331.044 249.783 331.922 250.429 332.776C251.723 334.489 253.164 336.103 254.616 337.685C255.966 339.156 257.405 340.565 258.898 341.892C260.516 343.332 262.328 344.615 263.798 346.209C266.865 349.534 267.36 354.097 268.007 358.382L268.078 358.846C268.473 361.389 268.826 363.938 269.145 366.492C269.3 367.734 269.454 368.977 269.581 370.222L269.619 370.616C269.732 371.836 269.762 373.072 269.058 374.137C268.303 375.277 266.588 375.676 265.569 374.584C263.817 372.707 264.145 369.372 263.917 366.958C263.729 364.961 263.515 362.967 263.276 360.975L263.155 359.98C262.873 357.714 262.644 355.404 262.122 353.178C261.662 351.218 260.786 349.738 259.348 348.318C257.9 346.887 256.394 345.552 255.057 344.011C253.639 342.377 252.36 340.625 251.208 338.797C250.222 337.233 249.432 335.531 248.708 333.831L248.588 333.548C247.888 331.89 246.734 329.731 246.789 327.905ZM272.083 256.694C272.099 256.463 272.443 256.459 272.448 256.694C272.491 258.683 272.533 260.672 272.575 262.661C272.909 278.687 272.703 294.752 274.321 310.723C275.085 318.254 276.491 325.674 278.117 333.063C278.95 336.843 279.823 340.615 280.653 344.397C281.461 348.082 282.328 351.785 282.97 355.505C283.6 359.16 284.164 362.844 284.418 366.547L284.449 367.03C284.558 368.823 285.079 371.461 284.085 373.051C283.007 374.774 280.945 374.804 279.79 373.16C278.707 371.617 278.976 368.871 278.785 367.03C278.59 365.154 278.384 363.276 278.151 361.405C277.694 357.754 277.094 354.111 276.469 350.485C275.167 342.933 273.279 335.477 271.886 327.937C270.458 320.211 269.443 312.431 269.4 304.565C269.358 296.632 270.203 288.715 270.629 280.8C271.063 272.761 271.556 264.727 272.083 256.694ZM195.872 206.846C196.305 205.397 197.834 204.491 199.325 204.898C200.692 205.271 201.82 206.919 201.286 208.329C200.703 209.867 199.684 211.179 198.825 212.577C198.031 213.869 196.874 214.886 196.066 216.155L196.956 217.109C197.402 217.585 197.849 218.058 198.301 218.523L199.854 220.122C201.064 221.364 202.282 222.6 203.534 223.799C207.215 227.327 210.955 230.738 215.077 233.759C216.016 234.447 216.962 235.13 217.934 235.77L218.297 236.009C218.964 236.443 219.708 236.869 220.514 236.796C222.472 236.617 224.241 234.551 225.587 233.266L225.657 233.199C228.992 230.047 232.08 226.601 234.779 222.895C235.379 222.072 235.959 221.235 236.524 220.388C235.219 218.873 235.531 215.917 235.459 214.08C235.408 212.789 235.404 211.497 235.397 210.204L235.393 209.944C235.378 209.107 235.34 208.305 235.886 207.616C235.918 207.577 235.984 207.578 236.024 207.599C236.773 207.988 237.003 208.641 237.323 209.373L237.356 209.449C237.745 210.327 238.117 211.213 238.494 212.097C238.888 213.022 239.25 213.96 239.616 214.896C239.787 215.331 239.949 215.769 240.108 216.208C240.205 216.489 240.306 216.768 240.409 217.047L240.433 217.068C240.569 217.183 240.684 217.304 240.784 217.429C241.202 217.637 241.533 218.015 241.689 218.57C242.028 219.78 241.327 220.766 240.701 221.726C238.16 225.626 235.263 229.343 232.042 232.714C230.443 234.389 228.76 235.989 227.009 237.507L226.702 237.77C225.129 239.113 223.42 240.386 221.319 240.7C218.859 241.068 216.858 239.853 214.975 238.453L214.787 238.313C213.003 236.971 211.254 235.581 209.559 234.128C206.105 231.165 202.818 227.984 199.902 224.494C197.064 221.099 194.26 217.303 192.511 213.218C192.404 212.969 192.685 212.708 192.904 212.916C193.759 213.724 194.581 214.576 195.393 215.438C195.415 214.169 195.179 212.888 195.311 211.61C195.471 210.057 195.425 208.341 195.872 206.846Z" fill="black"/>
<path fill-rule="evenodd" clip-rule="evenodd" d="M254.065 147.561C251.866 138.353 247.059 129.783 239.362 122.857C216.202 100.11 173.669 112.457 173.861 146.735C173.031 150.739 172.693 154.855 172.969 158.938C173.082 160.68 173.841 163.111 172.822 164.679C170.521 167.613 169.185 169.775 169.967 173.676C170.622 177.083 172.955 179.497 176.105 180.78C177.994 181.318 179.786 182.491 180.486 184.279C184.691 191.926 187.806 198.287 194.434 203.499C196.145 204.84 213.688 212.888 219.468 212.888C236.39 212.888 257.718 206.798 258.072 188.021C258.134 183.896 257.405 179.724 256.948 175.632C255.836 166.295 256.228 156.619 254.065 147.561Z" fill="white"/>
<path fill-rule="evenodd" clip-rule="evenodd" d="M253.684 142.955C253.69 142.842 253.854 142.816 253.886 142.928C254.515 145.145 254.871 147.404 255.363 149.655C255.837 151.824 256.284 153.999 256.656 156.186C257.359 160.315 257.951 164.454 258.501 168.605L258.638 169.643C259.595 176.945 261.175 184.553 259.793 191.899C258.614 198.166 254.661 203.218 249.566 206.922C244.742 210.428 238.894 212.679 233.087 213.958C226.854 215.332 219.466 215.741 214.395 211.201C212.364 209.383 215.132 205.776 217.334 207.416C222.506 211.268 229.085 210.133 234.92 208.6L235.097 208.553C240.219 207.198 245.375 205.144 249.441 201.679C253.936 197.847 256.159 192.529 256.416 186.697C256.56 183.421 256.252 180.148 255.921 176.89L255.884 176.528C255.503 172.803 255.104 169.08 254.735 165.353C254.399 161.955 254.109 158.537 253.955 155.124L253.884 153.402C253.735 149.931 253.534 146.41 253.684 142.955ZM193.032 114.115C201.447 109.763 211.119 108.205 220.485 109.666C229.488 111.07 237.751 115.685 243.927 122.303C246.943 125.534 249.619 129.271 251.33 133.355C252.179 135.383 252.844 137.499 253.199 139.672C253.381 140.789 253.56 141.947 253.594 143.08C253.626 144.128 253.316 145.112 253.352 146.178C253.358 146.345 253.101 146.377 253.062 146.217C252.769 145.028 252.064 144.129 251.622 143C251.292 142.157 250.917 141.334 250.535 140.514L250.207 139.811C249.255 137.767 248.117 135.807 246.992 133.855C244.725 129.922 241.817 126.348 238.412 123.332C232.433 118.038 224.762 114.62 216.757 114.004C208.447 113.365 200.019 115.333 192.923 119.691C185.827 124.049 180.461 130.824 177.676 138.625C176.27 142.561 175.494 146.662 175.313 150.832C175.222 152.943 175.307 155.072 175.456 157.179L175.53 158.183C175.617 159.388 175.676 160.588 175.495 161.764C176.775 161.367 178.117 161.203 179.463 161.399C181.464 161.691 182.659 162.506 183.557 164.281C183.604 164.374 183.51 164.467 183.417 164.421C182.253 163.844 180.371 164.148 179.138 164.45C177.856 164.765 176.701 165.312 175.611 166.052C173.595 167.42 172.015 169.541 171.627 171.973C171.253 174.323 172.224 176.702 173.855 178.387C174.695 179.254 175.698 180.004 176.822 180.471C178.186 181.039 179.536 181.021 180.742 181.958C181.488 182.537 181.308 183.528 180.802 184.17C183.347 186.943 185.605 189.977 188.15 192.76C189.33 194.05 190.5 195.342 191.63 196.674L192.052 197.175C193.181 198.529 194.977 199.958 195.493 201.66C195.814 202.719 194.673 204.104 193.519 203.621C191.749 202.881 190.485 200.955 189.289 199.478L189.212 199.382C187.957 197.851 186.844 196.235 185.826 194.541L185.491 193.983C183.65 190.908 181.825 187.718 180.652 184.34C180.574 184.419 180.492 184.491 180.406 184.552C178.715 185.747 176.256 184.828 174.568 184.052C172.973 183.32 171.512 182.219 170.372 180.891C167.895 178.004 166.753 174.265 167.58 170.518C168.281 167.344 170.496 164.256 173.399 162.651C172.059 161.118 171.504 159.052 171.135 157.032C170.663 154.454 170.569 151.812 170.697 149.197C170.953 143.989 172.302 138.856 174.387 134.087C178.119 125.554 184.715 118.417 193.032 114.115ZM175.32 171.054C177.086 170.725 178.732 170.646 180.436 171.388C182.284 172.194 183.584 173.524 184.793 175.083C186.169 176.856 182.643 178.793 181.754 176.439L181.728 176.367C181.49 175.67 181.064 174.996 180.524 174.376C180.362 174.623 180.145 174.84 179.89 174.964C179.582 175.115 179.111 175.011 179.037 174.62C178.955 174.185 179.046 173.659 179.298 173.292L179.333 173.241V173.241C178.107 172.262 176.633 171.546 175.32 171.316C175.189 171.293 175.19 171.078 175.32 171.054Z" fill="black"/>
<path fill-rule="evenodd" clip-rule="evenodd" d="M230.625 196.486C228.992 195.824 227.534 194.72 226.469 193.31C226.099 192.819 226.002 192.301 226.08 191.828C226.168 191.295 226.485 190.813 226.917 190.489C227.351 190.164 227.894 190.004 228.418 190.086C228.874 190.157 229.328 190.405 229.687 190.919L229.762 191.022C230.395 191.873 231.221 192.572 232.161 193.022C233.068 193.456 234.081 193.658 235.131 193.54C237.129 193.316 238.506 192.243 239.969 190.785C240.151 190.601 240.332 190.411 240.515 190.218C240.63 190.044 240.79 189.931 240.967 189.872C241.165 189.807 241.388 189.81 241.592 189.881C241.789 189.95 241.965 190.079 242.083 190.251C242.195 190.415 242.259 190.617 242.238 190.85C242.104 192.36 241.309 193.709 240.18 194.767C238.925 195.943 237.263 196.756 235.698 197.042C233.973 197.356 232.216 197.131 230.625 196.486V196.486ZM236.511 173.181C238.346 174.288 241.142 176.872 239.168 179.618C236.845 182.04 233.5 179.263 231.852 178.007C230.323 177.034 228.606 179.537 230.024 180.674C241.935 189.434 246.768 173.47 237.439 171.878C236.412 171.703 236.031 172.838 236.511 173.181ZM215.167 162.99C215.37 160.491 219.202 159.923 219.583 162.397C219.924 164.612 219.523 166.648 218.518 168.642C217.558 170.548 215.145 169.659 214.963 167.924C214.718 165.598 215.041 164.545 215.167 162.99ZM244.338 161.884C244.872 161.189 245.644 160.714 246.568 160.982C249.455 161.821 248.604 165.893 247.59 167.875C247.039 168.952 245.258 169.225 244.453 168.277C243.141 166.731 242.513 163.644 244.181 162.122C244.226 162.043 244.276 161.964 244.338 161.884ZM218.477 152.053L218.934 151.974C220.345 151.731 222.099 151.498 223.097 152.625C223.627 153.223 223.809 154.334 223.097 154.906C221.846 155.912 220.462 155.522 218.962 155.607C217.725 155.678 216.537 155.881 215.347 156.219C212.734 156.961 210.606 158.315 208.375 159.802C208.082 159.997 207.783 159.625 207.923 159.353C209.211 156.847 211.707 154.788 214.207 153.533C215.541 152.864 217.001 152.308 218.477 152.053ZM241.706 150.93L242.055 151.001C245.854 151.79 250.79 153.366 252.589 157.073C252.658 157.598 252.585 157.71 252.526 157.783L252.507 157.808C252.458 157.87 252.419 157.957 252.191 158.028C252.127 158.013 252.063 157.997 251.998 157.98C251.174 157.766 250.521 157.47 249.89 157.163L249.205 156.828C248.41 156.441 247.608 156.068 246.759 155.792C244.946 155.205 243.081 154.791 241.187 154.57C240.777 154.522 240.382 154.385 240.07 154.149C239.774 153.925 239.548 153.615 239.445 153.203C239.311 152.67 239.35 152.266 239.637 151.785C239.854 151.424 240.164 151.174 240.52 151.03C240.882 150.883 241.295 150.849 241.706 150.93Z" fill="black"/>
<path fill-rule="evenodd" clip-rule="evenodd" d="M241.657 200.199C239.394 198.196 236.858 194.17 233.608 197.356C232.804 198.256 232.478 200.274 231.249 200.669C229.616 201.196 227.998 199.479 227.441 198.162C225.165 190.84 234.576 188.831 239.937 190.014C242.556 191.083 244.485 195.384 244.602 197.628C244.677 199.137 243.392 201.355 241.657 200.199M258.727 188.913C258.705 188.816 258.674 188.728 258.637 188.648C257.636 188.272 256.845 188.655 256.355 189.371C256.371 189.549 256.425 189.729 256.458 189.906C256.081 190.696 255.74 191.674 255.229 192.357C255.128 192.364 255.023 192.354 254.922 192.325C246.44 193.205 250.581 184.388 241.978 182.198C235.327 181.108 223.307 182.357 220.17 189.233C217.696 200.217 205.114 192.564 200.984 186.852C196.576 181.653 193.726 175.3 190.978 169.136C190.398 167.832 188.586 168.765 188.783 170.016C186.243 175.078 186.327 181.157 185.698 186.702C184.628 197.765 183.586 213.279 193.933 220.034C207.414 235.171 241.077 240.513 256.626 226.604C262.009 215.108 261.345 201.084 258.727 188.913" fill="black"/>
<path fill-rule="evenodd" clip-rule="evenodd" d="M223.757 107.296C211.777 106.398 199.994 108.7 188.562 111.488L187.774 111.685C181.273 113.304 174.4 114.76 168.907 118.224C161.232 123.352 157.269 131.512 153.811 139.045C150.791 144.642 152.334 150.953 156.885 154.861C157.359 150.977 158.166 147.207 159.428 143.468C159.691 142.883 159.492 142.692 160.059 142.616C160.917 152.694 156.695 160.14 165.049 172.084C168.674 177.719 164.478 181.843 174.714 184.809L174.991 184.901C177.123 185.603 179.452 186.157 181.541 185.765L181.354 185.499C181.163 185.226 181.105 185.093 181.382 184.976C181.375 184.963 181.365 184.949 181.354 184.934C181.13 184.564 180.913 184.189 180.706 183.811C180.622 183.835 180.537 183.853 180.45 183.873C180.507 183.964 180.514 184.056 180.356 184.087C179.793 184.255 179.215 184.323 178.624 184.291L178.497 184.283C177.828 184.247 177.407 184.141 177.031 184.042C176.906 184.024 176.781 184.007 176.658 183.984C175.446 183.75 174.355 181.918 173.525 181.327C164.061 176.637 165.884 163.423 177.55 161.914C177.789 151.861 182.232 133.387 191.326 123.808C199.547 114.998 218.286 114.317 233.9 115.664C234.128 115.729 241.015 128.88 243.675 123.086C246.084 123.273 238.964 121.509 241.375 121.944C239.644 120.813 238.222 116.875 236.2 116.235C246.55 123.808 231.034 108.442 226.571 107.622C225.647 107.423 224.71 107.314 223.757 107.296Z" fill="#231F20"/>
<path fill-rule="evenodd" clip-rule="evenodd" d="M257.256 174.335C255.621 176.518 252.588 177.214 249.791 176.974C243.758 176.397 241.859 169.59 241.661 164.3C245.707 165.431 241.319 157.424 255.148 156.543C260.023 156.14 258.679 159.065 260.833 161.201C260.789 165.686 260.037 170.56 257.256 174.335M228.522 169.182C224.96 185.752 205.456 181.81 203.407 166.874C205.299 165.547 204.8 162.272 207.151 161.085C210.876 158.721 215.532 158.822 219.762 158.877C225.17 159.246 226.71 161.471 229.488 163.899C229.354 165.52 228.969 167.442 228.522 169.182M264.983 153.799C264.783 153.766 264.583 153.735 264.382 153.706C264.226 153.618 264.043 153.55 263.829 153.509C263.342 153.386 262.859 153.303 262.376 153.259C255.443 151.709 239.407 153.909 238.745 159.786C236.537 160.518 234.627 159.863 232.068 159.928C230.121 151.841 196.451 152.982 194.832 157.858C194.826 157.856 194.82 157.855 194.813 157.853C193.257 157.374 190.964 157.49 189.183 157.414C185.38 157.335 181.573 157.671 177.853 158.468C170.886 159.568 161.378 160.856 166.223 169.498C166.224 169.5 166.225 169.501 166.226 169.503L166.227 169.502C167.062 170.352 168.479 169.668 168.532 168.517C166.903 164.422 170.582 163.931 173.413 162.754C180.457 160.24 187.629 159.891 194.914 160.669C195.462 161.31 196.294 161.869 197.173 162.162C202.044 162.965 199.477 166.554 202.556 167.076C201.99 179.589 217.282 186.419 226.143 178.194C229.68 174.758 230.524 169.668 231.344 165.08C231.778 164.983 232.053 164.747 232.214 164.436C233.257 163.401 233.913 162.446 235.975 162.162C238.038 161.878 239.625 162.448 239.84 162.622C239.894 162.731 239.952 162.839 240.02 162.948C240.114 163.11 240.243 163.239 240.388 163.34C238.352 175.8 248.089 183.68 257.918 177.218C262.19 173.226 263.092 167.116 263.271 161.662C263.85 161.315 264.216 160.642 264.016 159.796C263.739 158.63 264.387 157.621 265.419 157.114C266.759 156.456 266.522 154.052 264.983 153.799" fill="black"/>
</svg>
