<svg width="925" height="370" viewBox="0 0 925 370" fill="none" xmlns="http://www.w3.org/2000/svg">
<rect width="925" height="328" transform="translate(0 14)" fill="white"/>
<path d="M38.75 276C38.3833 276 38.0833 275.883 37.85 275.65C37.6167 275.417 37.5 275.117 37.5 274.75V242.25C37.5 241.883 37.6167 241.583 37.85 241.35C38.1167 241.117 38.4167 241 38.75 241H45.2C45.5667 241 45.8667 241.117 46.1 241.35C46.3667 241.583 46.5 241.883 46.5 242.25V254.3H58.8V242.25C58.8 241.883 58.9167 241.583 59.15 241.35C59.3833 241.117 59.6833 241 60.05 241H66.5C66.8667 241 67.1667 241.117 67.4 241.35C67.6333 241.583 67.75 241.883 67.75 242.25V274.75C67.75 275.117 67.6333 275.417 67.4 275.65C67.1667 275.883 66.8667 276 66.5 276H60.05C59.6833 276 59.3833 275.883 59.15 275.65C58.9167 275.417 58.8 275.117 58.8 274.75V262.3H46.5V274.75C46.5 275.117 46.3667 275.417 46.1 275.65C45.8667 275.883 45.5667 276 45.2 276H38.75ZM75.4059 246.25C75.0392 246.25 74.7392 246.133 74.5059 245.9C74.2725 245.667 74.1559 245.367 74.1559 245V240.5C74.1559 240.133 74.2725 239.833 74.5059 239.6C74.7392 239.367 75.0392 239.25 75.4059 239.25H81.4059C81.7725 239.25 82.0725 239.367 82.3059 239.6C82.5392 239.833 82.6559 240.133 82.6559 240.5V245C82.6559 245.367 82.5392 245.667 82.3059 245.9C82.0725 246.133 81.7725 246.25 81.4059 246.25H75.4059ZM75.4559 276C75.0892 276 74.7892 275.883 74.5559 275.65C74.3225 275.417 74.2059 275.117 74.2059 274.75V251.25C74.2059 250.883 74.3225 250.583 74.5559 250.35C74.7892 250.117 75.0892 250 75.4559 250H81.3559C81.7225 250 82.0225 250.117 82.2559 250.35C82.4892 250.583 82.6059 250.883 82.6059 251.25V274.75C82.6059 275.083 82.4892 275.383 82.2559 275.65C82.0225 275.883 81.7225 276 81.3559 276H75.4559ZM88.1625 279.75C87.8958 279.75 87.6625 279.633 87.4625 279.4C87.2625 279.2 87.1792 278.95 87.2125 278.65L88.7625 268.85C88.8292 268.383 89.0125 267.983 89.3125 267.65C89.6125 267.317 90.0292 267.15 90.5625 267.15H96.4125C96.6792 267.15 96.8958 267.25 97.0625 267.45C97.2625 267.617 97.3625 267.833 97.3625 268.1C97.3625 268.333 97.3292 268.517 97.2625 268.65L93.5125 278.35C93.3125 278.783 93.0792 279.117 92.8125 279.35C92.5458 279.617 92.1625 279.75 91.6625 279.75H88.1625ZM114.873 276C114.54 276 114.24 275.883 113.973 275.65C113.74 275.383 113.623 275.083 113.623 274.75V242.25C113.623 241.883 113.74 241.583 113.973 241.35C114.24 241.117 114.54 241 114.873 241H121.573C121.94 241 122.24 241.117 122.473 241.35C122.74 241.583 122.873 241.883 122.873 242.25V274.75C122.873 275.117 122.74 275.417 122.473 275.65C122.24 275.883 121.94 276 121.573 276H114.873ZM147.729 276.5C145.962 276.5 144.345 276.167 142.879 275.5C141.445 274.8 140.312 273.867 139.479 272.7C138.679 271.5 138.279 270.183 138.279 268.75C138.279 266.45 139.212 264.6 141.079 263.2C142.979 261.8 145.579 260.833 148.879 260.3L155.129 259.35V258.65C155.129 257.383 154.862 256.45 154.329 255.85C153.795 255.25 152.895 254.95 151.629 254.95C150.862 254.95 150.229 255.083 149.729 255.35C149.229 255.617 148.712 255.983 148.179 256.45C147.712 256.85 147.362 257.117 147.129 257.25C147.029 257.517 146.845 257.65 146.579 257.65H141.129C140.795 257.65 140.512 257.55 140.279 257.35C140.079 257.117 139.995 256.85 140.029 256.55C140.062 255.65 140.495 254.65 141.329 253.55C142.195 252.45 143.495 251.5 145.229 250.7C146.995 249.9 149.162 249.5 151.729 249.5C155.829 249.5 158.862 250.417 160.829 252.25C162.795 254.05 163.779 256.483 163.779 259.55V274.75C163.779 275.083 163.662 275.383 163.429 275.65C163.195 275.883 162.895 276 162.529 276H156.729C156.395 276 156.095 275.883 155.829 275.65C155.595 275.383 155.479 275.083 155.479 274.75V273C154.745 274.033 153.712 274.883 152.379 275.55C151.079 276.183 149.529 276.5 147.729 276.5ZM150.079 270.8C151.612 270.8 152.845 270.3 153.779 269.3C154.745 268.3 155.229 266.833 155.229 264.9V264.2L150.979 264.95C147.979 265.483 146.479 266.533 146.479 268.1C146.479 268.933 146.829 269.6 147.529 270.1C148.229 270.567 149.079 270.8 150.079 270.8ZM170.671 276C170.304 276 170.004 275.883 169.771 275.65C169.537 275.417 169.421 275.117 169.421 274.75V251.25C169.421 250.883 169.537 250.583 169.771 250.35C170.004 250.117 170.304 250 170.671 250H176.121C176.487 250 176.787 250.117 177.021 250.35C177.254 250.583 177.371 250.883 177.371 251.25V252.95C178.137 251.95 179.154 251.133 180.421 250.5C181.721 249.833 183.171 249.5 184.771 249.5C188.437 249.5 190.971 250.933 192.371 253.8C193.171 252.533 194.287 251.5 195.721 250.7C197.154 249.9 198.687 249.5 200.321 249.5C203.054 249.5 205.271 250.433 206.971 252.3C208.704 254.133 209.571 256.883 209.571 260.55V274.75C209.571 275.083 209.454 275.383 209.221 275.65C208.987 275.883 208.687 276 208.321 276H202.521C202.154 276 201.837 275.883 201.571 275.65C201.337 275.417 201.221 275.117 201.221 274.75V260.9C201.221 259.233 200.871 258.033 200.171 257.3C199.504 256.567 198.587 256.2 197.421 256.2C196.354 256.2 195.471 256.583 194.771 257.35C194.071 258.083 193.721 259.267 193.721 260.9V274.75C193.721 275.083 193.604 275.383 193.371 275.65C193.137 275.883 192.837 276 192.471 276H186.671C186.304 276 186.004 275.883 185.771 275.65C185.537 275.417 185.421 275.117 185.421 274.75V260.9C185.421 259.267 185.054 258.083 184.321 257.35C183.621 256.583 182.721 256.2 181.621 256.2C180.554 256.2 179.654 256.583 178.921 257.35C178.221 258.083 177.871 259.25 177.871 260.85V274.75C177.871 275.083 177.754 275.383 177.521 275.65C177.287 275.883 176.987 276 176.621 276H170.671ZM223.146 276C222.88 276 222.63 275.9 222.396 275.7C222.196 275.467 222.096 275.217 222.096 274.95C222.096 274.75 222.113 274.6 222.146 274.5L233.896 242.4C233.996 242 234.213 241.667 234.546 241.4C234.88 241.133 235.313 241 235.846 241H243.246C243.78 241 244.213 241.133 244.546 241.4C244.88 241.667 245.096 242 245.196 242.4L256.896 274.5L256.996 274.95C256.996 275.217 256.88 275.467 256.646 275.7C256.446 275.9 256.196 276 255.896 276H249.746C248.946 276 248.413 275.65 248.146 274.95L246.196 269.85H232.846L230.946 274.95C230.68 275.65 230.13 276 229.296 276H223.146ZM244.196 262.65L239.546 249.45L234.896 262.65H244.196ZM261.638 276C261.304 276 261.004 275.883 260.737 275.65C260.504 275.383 260.388 275.083 260.388 274.75V241.75C260.388 241.383 260.504 241.083 260.737 240.85C261.004 240.617 261.304 240.5 261.638 240.5H267.538C267.904 240.5 268.204 240.617 268.438 240.85C268.671 241.083 268.788 241.383 268.788 241.75V274.75C268.788 275.117 268.671 275.417 268.438 275.65C268.204 275.883 267.904 276 267.538 276H261.638ZM286.694 276.5C282.694 276.5 279.544 275.417 277.244 273.25C274.944 271.083 273.744 267.933 273.644 263.8V262.05C273.777 258.117 274.994 255.05 277.294 252.85C279.627 250.617 282.744 249.5 286.644 249.5C289.477 249.5 291.861 250.083 293.794 251.25C295.761 252.383 297.227 253.95 298.194 255.95C299.194 257.95 299.694 260.25 299.694 262.85V264.05C299.694 264.383 299.577 264.683 299.344 264.95C299.111 265.183 298.811 265.3 298.444 265.3H282.444V265.65C282.511 267.217 282.894 268.483 283.594 269.45C284.294 270.417 285.311 270.9 286.644 270.9C287.477 270.9 288.161 270.733 288.694 270.4C289.227 270.033 289.711 269.6 290.144 269.1C290.444 268.733 290.677 268.517 290.844 268.45C291.044 268.35 291.344 268.3 291.744 268.3H297.944C298.244 268.3 298.494 268.4 298.694 268.6C298.927 268.767 299.044 269 299.044 269.3C299.044 270.167 298.544 271.167 297.544 272.3C296.577 273.433 295.161 274.417 293.294 275.25C291.427 276.083 289.227 276.5 286.694 276.5ZM290.894 260.35V260.25C290.894 258.617 290.511 257.333 289.744 256.4C289.011 255.433 287.977 254.95 286.644 254.95C285.344 254.95 284.311 255.433 283.544 256.4C282.811 257.333 282.444 258.617 282.444 260.25V260.35H290.894ZM302.502 276C302.202 276 301.935 275.9 301.702 275.7C301.502 275.467 301.402 275.183 301.402 274.85C301.402 274.583 301.485 274.333 301.652 274.1L310.002 262.65L302.402 251.9C302.202 251.633 302.102 251.367 302.102 251.1C302.102 250.8 302.218 250.55 302.452 250.35C302.685 250.117 302.952 250 303.252 250H309.352C309.952 250 310.435 250.283 310.802 250.85L315.452 257.25L320.052 250.9C320.252 250.633 320.452 250.417 320.652 250.25C320.852 250.083 321.152 250 321.552 250H327.402C327.702 250 327.952 250.117 328.152 250.35C328.385 250.55 328.502 250.8 328.502 251.1C328.502 251.433 328.418 251.7 328.252 251.9L320.452 262.65L328.952 274.1C329.118 274.333 329.202 274.583 329.202 274.85C329.202 275.183 329.085 275.467 328.852 275.7C328.652 275.9 328.402 276 328.102 276H321.702C321.135 276 320.668 275.733 320.302 275.2L315.252 268.35L310.152 275.2C309.952 275.467 309.752 275.667 309.552 275.8C309.352 275.933 309.085 276 308.752 276H302.502ZM333.946 276C333.613 276 333.313 275.883 333.046 275.65C332.813 275.383 332.696 275.083 332.696 274.75V268.4C332.696 268.033 332.813 267.733 333.046 267.5C333.313 267.267 333.613 267.15 333.946 267.15H340.296C340.663 267.15 340.963 267.267 341.196 267.5C341.429 267.733 341.546 268.033 341.546 268.4V274.75C341.546 275.083 341.429 275.383 341.196 275.65C340.963 275.883 340.663 276 340.296 276H333.946Z" fill="black"/>
<path d="M38.4 325C38.1333 325 37.9067 324.92 37.72 324.76C37.56 324.573 37.48 324.347 37.48 324.08V297.96C37.48 297.667 37.56 297.44 37.72 297.28C37.9067 297.093 38.1333 297 38.4 297H54.72C55.0133 297 55.24 297.093 55.4 297.28C55.5867 297.44 55.68 297.667 55.68 297.96V299.56C55.68 299.827 55.5867 300.053 55.4 300.24C55.24 300.4 55.0133 300.48 54.72 300.48H41.36V309.8H53.92C54.2133 309.8 54.44 309.893 54.6 310.08C54.7867 310.24 54.88 310.467 54.88 310.76V312.36C54.88 312.627 54.7867 312.853 54.6 313.04C54.4133 313.2 54.1867 313.28 53.92 313.28H41.36V324.08C41.36 324.347 41.2667 324.573 41.08 324.76C40.8933 324.92 40.6667 325 40.4 325H38.4ZM60.6925 325C60.4258 325 60.1992 324.92 60.0125 324.76C59.8525 324.573 59.7725 324.347 59.7725 324.08V305.16C59.7725 304.893 59.8525 304.667 60.0125 304.48C60.1992 304.293 60.4258 304.2 60.6925 304.2H62.5325C62.7992 304.2 63.0258 304.293 63.2125 304.48C63.3992 304.667 63.4925 304.893 63.4925 305.16V306.92C64.5858 305.107 66.4525 304.2 69.0925 304.2H70.6525C70.9192 304.2 71.1325 304.293 71.2925 304.48C71.4792 304.64 71.5725 304.853 71.5725 305.12V306.76C71.5725 307.027 71.4792 307.24 71.2925 307.4C71.1325 307.56 70.9192 307.64 70.6525 307.64H68.2525C66.8125 307.64 65.6792 308.067 64.8525 308.92C64.0258 309.747 63.6125 310.88 63.6125 312.32V324.08C63.6125 324.347 63.5192 324.573 63.3325 324.76C63.1458 324.92 62.9192 325 62.6525 325H60.6925ZM83.0972 325.4C80.1639 325.4 77.8839 324.573 76.2572 322.92C74.6572 321.267 73.8039 319.067 73.6972 316.32L73.6572 314.6L73.6972 312.88C73.8039 310.16 74.6705 307.973 76.2972 306.32C77.9239 304.64 80.1905 303.8 83.0972 303.8C86.0039 303.8 88.2705 304.64 89.8972 306.32C91.5239 307.973 92.3905 310.16 92.4972 312.88C92.5239 313.173 92.5372 313.747 92.5372 314.6C92.5372 315.453 92.5239 316.027 92.4972 316.32C92.3905 319.067 91.5239 321.267 89.8972 322.92C88.2972 324.573 86.0305 325.4 83.0972 325.4ZM83.0972 322.32C84.7772 322.32 86.0972 321.787 87.0572 320.72C88.0439 319.653 88.5772 318.12 88.6572 316.12C88.6839 315.853 88.6972 315.347 88.6972 314.6C88.6972 313.853 88.6839 313.347 88.6572 313.08C88.5772 311.08 88.0439 309.547 87.0572 308.48C86.0972 307.413 84.7772 306.88 83.0972 306.88C81.4172 306.88 80.0839 307.413 79.0972 308.48C78.1105 309.547 77.5905 311.08 77.5372 313.08L77.4972 314.6L77.5372 316.12C77.5905 318.12 78.1105 319.653 79.0972 320.72C80.0839 321.787 81.4172 322.32 83.0972 322.32ZM98.4659 325C98.1993 325 97.9726 324.92 97.7859 324.76C97.6259 324.573 97.5459 324.347 97.5459 324.08V305.12C97.5459 304.853 97.6259 304.64 97.7859 304.48C97.9726 304.293 98.1993 304.2 98.4659 304.2H100.346C100.613 304.2 100.826 304.293 100.986 304.48C101.173 304.64 101.266 304.853 101.266 305.12V306.88C102.039 305.893 102.946 305.133 103.986 304.6C105.053 304.067 106.373 303.8 107.946 303.8C110.506 303.8 112.493 304.627 113.906 306.28C115.346 307.907 116.066 310.08 116.066 312.8V324.08C116.066 324.347 115.973 324.573 115.786 324.76C115.626 324.92 115.413 325 115.146 325H113.146C112.879 325 112.653 324.92 112.466 324.76C112.306 324.573 112.226 324.347 112.226 324.08V313C112.226 311.107 111.759 309.64 110.826 308.6C109.919 307.56 108.599 307.04 106.866 307.04C105.186 307.04 103.853 307.573 102.866 308.64C101.879 309.68 101.386 311.133 101.386 313V324.08C101.386 324.347 101.293 324.573 101.106 324.76C100.946 324.92 100.733 325 100.466 325H98.4659ZM129.65 325C125.437 325 123.33 322.653 123.33 317.96V307.4H120.21C119.944 307.4 119.717 307.32 119.53 307.16C119.37 306.973 119.29 306.747 119.29 306.48V305.12C119.29 304.853 119.37 304.64 119.53 304.48C119.717 304.293 119.944 304.2 120.21 304.2H123.33V297.52C123.33 297.253 123.41 297.04 123.57 296.88C123.757 296.693 123.984 296.6 124.25 296.6H126.13C126.397 296.6 126.61 296.693 126.77 296.88C126.957 297.04 127.05 297.253 127.05 297.52V304.2H132.01C132.277 304.2 132.49 304.293 132.65 304.48C132.837 304.64 132.93 304.853 132.93 305.12V306.48C132.93 306.747 132.837 306.973 132.65 307.16C132.49 307.32 132.277 307.4 132.01 307.4H127.05V317.68C127.05 319.013 127.277 320.027 127.73 320.72C128.184 321.387 128.93 321.72 129.97 321.72H132.41C132.677 321.72 132.89 321.813 133.05 322C133.237 322.16 133.33 322.373 133.33 322.64V324.08C133.33 324.347 133.237 324.573 133.05 324.76C132.89 324.92 132.677 325 132.41 325H129.65ZM145.475 325.4C142.729 325.4 140.529 324.56 138.875 322.88C137.249 321.173 136.355 318.853 136.195 315.92L136.155 314.56L136.195 313.24C136.382 310.36 137.289 308.067 138.915 306.36C140.569 304.653 142.742 303.8 145.435 303.8C148.395 303.8 150.689 304.747 152.315 306.64C153.942 308.507 154.755 311.04 154.755 314.24V314.92C154.755 315.187 154.662 315.413 154.475 315.6C154.315 315.76 154.102 315.84 153.835 315.84H139.995V316.2C140.075 317.933 140.595 319.413 141.555 320.64C142.542 321.84 143.835 322.44 145.435 322.44C146.662 322.44 147.662 322.2 148.435 321.72C149.235 321.213 149.822 320.693 150.195 320.16C150.435 319.84 150.609 319.653 150.715 319.6C150.849 319.52 151.075 319.48 151.395 319.48H153.355C153.595 319.48 153.795 319.547 153.955 319.68C154.115 319.813 154.195 320 154.195 320.24C154.195 320.827 153.822 321.533 153.075 322.36C152.355 323.187 151.329 323.907 149.995 324.52C148.689 325.107 147.182 325.4 145.475 325.4ZM150.955 313.08V312.96C150.955 311.12 150.449 309.627 149.435 308.48C148.449 307.307 147.115 306.72 145.435 306.72C143.755 306.72 142.422 307.307 141.435 308.48C140.475 309.627 139.995 311.12 139.995 312.96V313.08H150.955ZM160.458 325C160.191 325 159.965 324.92 159.778 324.76C159.618 324.573 159.538 324.347 159.538 324.08V305.12C159.538 304.853 159.618 304.64 159.778 304.48C159.965 304.293 160.191 304.2 160.458 304.2H162.338C162.605 304.2 162.818 304.293 162.978 304.48C163.165 304.64 163.258 304.853 163.258 305.12V306.88C164.031 305.893 164.938 305.133 165.978 304.6C167.045 304.067 168.365 303.8 169.938 303.8C172.498 303.8 174.485 304.627 175.898 306.28C177.338 307.907 178.058 310.08 178.058 312.8V324.08C178.058 324.347 177.965 324.573 177.778 324.76C177.618 324.92 177.405 325 177.138 325H175.138C174.871 325 174.645 324.92 174.458 324.76C174.298 324.573 174.218 324.347 174.218 324.08V313C174.218 311.107 173.751 309.64 172.818 308.6C171.911 307.56 170.591 307.04 168.858 307.04C167.178 307.04 165.845 307.573 164.858 308.64C163.871 309.68 163.378 311.133 163.378 313V324.08C163.378 324.347 163.285 324.573 163.098 324.76C162.938 324.92 162.725 325 162.458 325H160.458ZM191.396 325.4C188.623 325.4 186.529 324.493 185.116 322.68C183.703 320.867 182.956 318.573 182.876 315.8L182.836 314.6L182.876 313.4C182.956 310.653 183.703 308.373 185.116 306.56C186.529 304.72 188.623 303.8 191.396 303.8C194.143 303.8 196.303 304.773 197.876 306.72V297.52C197.876 297.253 197.956 297.04 198.116 296.88C198.303 296.693 198.529 296.6 198.796 296.6H200.716C200.983 296.6 201.196 296.693 201.356 296.88C201.543 297.04 201.636 297.253 201.636 297.52V324.08C201.636 324.347 201.543 324.573 201.356 324.76C201.196 324.92 200.983 325 200.716 325H198.916C198.649 325 198.423 324.92 198.236 324.76C198.076 324.573 197.996 324.347 197.996 324.08V322.4C196.449 324.4 194.249 325.4 191.396 325.4ZM192.236 322.16C194.076 322.16 195.449 321.56 196.356 320.36C197.289 319.133 197.796 317.68 197.876 316C197.903 315.707 197.916 315.2 197.916 314.48C197.916 313.733 197.903 313.213 197.876 312.92C197.823 311.347 197.316 309.973 196.356 308.8C195.396 307.627 194.023 307.04 192.236 307.04C190.343 307.04 188.956 307.627 188.076 308.8C187.223 309.973 186.756 311.52 186.676 313.44L186.636 314.6C186.636 319.64 188.503 322.16 192.236 322.16ZM224.99 325.4C222.216 325.4 220.123 324.493 218.71 322.68C217.296 320.867 216.55 318.573 216.47 315.8L216.43 314.6L216.47 313.4C216.55 310.653 217.296 308.373 218.71 306.56C220.123 304.72 222.216 303.8 224.99 303.8C227.736 303.8 229.896 304.773 231.47 306.72V297.52C231.47 297.253 231.55 297.04 231.71 296.88C231.896 296.693 232.123 296.6 232.39 296.6H234.31C234.576 296.6 234.79 296.693 234.95 296.88C235.136 297.04 235.23 297.253 235.23 297.52V324.08C235.23 324.347 235.136 324.573 234.95 324.76C234.79 324.92 234.576 325 234.31 325H232.51C232.243 325 232.016 324.92 231.83 324.76C231.67 324.573 231.59 324.347 231.59 324.08V322.4C230.043 324.4 227.843 325.4 224.99 325.4ZM225.83 322.16C227.67 322.16 229.043 321.56 229.95 320.36C230.883 319.133 231.39 317.68 231.47 316C231.496 315.707 231.51 315.2 231.51 314.48C231.51 313.733 231.496 313.213 231.47 312.92C231.416 311.347 230.91 309.973 229.95 308.8C228.99 307.627 227.616 307.04 225.83 307.04C223.936 307.04 222.55 307.627 221.67 308.8C220.816 309.973 220.35 311.52 220.27 313.44L220.23 314.6C220.23 319.64 222.096 322.16 225.83 322.16ZM249.499 325.4C246.752 325.4 244.552 324.56 242.899 322.88C241.272 321.173 240.379 318.853 240.219 315.92L240.179 314.56L240.219 313.24C240.405 310.36 241.312 308.067 242.939 306.36C244.592 304.653 246.765 303.8 249.459 303.8C252.419 303.8 254.712 304.747 256.339 306.64C257.965 308.507 258.779 311.04 258.779 314.24V314.92C258.779 315.187 258.685 315.413 258.499 315.6C258.339 315.76 258.125 315.84 257.859 315.84H244.019V316.2C244.099 317.933 244.619 319.413 245.579 320.64C246.565 321.84 247.859 322.44 249.459 322.44C250.685 322.44 251.685 322.2 252.459 321.72C253.259 321.213 253.845 320.693 254.219 320.16C254.459 319.84 254.632 319.653 254.739 319.6C254.872 319.52 255.099 319.48 255.419 319.48H257.379C257.619 319.48 257.819 319.547 257.979 319.68C258.139 319.813 258.219 320 258.219 320.24C258.219 320.827 257.845 321.533 257.099 322.36C256.379 323.187 255.352 323.907 254.019 324.52C252.712 325.107 251.205 325.4 249.499 325.4ZM254.979 313.08V312.96C254.979 311.12 254.472 309.627 253.459 308.48C252.472 307.307 251.139 306.72 249.459 306.72C247.779 306.72 246.445 307.307 245.459 308.48C244.499 309.627 244.019 311.12 244.019 312.96V313.08H254.979ZM270.098 325C269.405 325 268.912 324.667 268.618 324L261.218 305.44L261.138 305.04C261.138 304.8 261.218 304.6 261.378 304.44C261.538 304.28 261.738 304.2 261.978 304.2H263.898C264.352 304.2 264.685 304.427 264.898 304.88L270.978 320.64L277.058 304.88C277.298 304.427 277.618 304.2 278.018 304.2H279.978C280.192 304.2 280.378 304.28 280.538 304.44C280.725 304.6 280.818 304.8 280.818 305.04L280.738 305.44L273.298 324C273.005 324.667 272.512 325 271.818 325H270.098ZM292.585 325.4C289.838 325.4 287.638 324.56 285.985 322.88C284.358 321.173 283.465 318.853 283.305 315.92L283.265 314.56L283.305 313.24C283.491 310.36 284.398 308.067 286.025 306.36C287.678 304.653 289.851 303.8 292.545 303.8C295.505 303.8 297.798 304.747 299.425 306.64C301.051 308.507 301.865 311.04 301.865 314.24V314.92C301.865 315.187 301.771 315.413 301.585 315.6C301.425 315.76 301.211 315.84 300.945 315.84H287.105V316.2C287.185 317.933 287.705 319.413 288.665 320.64C289.651 321.84 290.945 322.44 292.545 322.44C293.771 322.44 294.771 322.2 295.545 321.72C296.345 321.213 296.931 320.693 297.305 320.16C297.545 319.84 297.718 319.653 297.825 319.6C297.958 319.52 298.185 319.48 298.505 319.48H300.465C300.705 319.48 300.905 319.547 301.065 319.68C301.225 319.813 301.305 320 301.305 320.24C301.305 320.827 300.931 321.533 300.185 322.36C299.465 323.187 298.438 323.907 297.105 324.52C295.798 325.107 294.291 325.4 292.585 325.4ZM298.065 313.08V312.96C298.065 311.12 297.558 309.627 296.545 308.48C295.558 307.307 294.225 306.72 292.545 306.72C290.865 306.72 289.531 307.307 288.545 308.48C287.585 309.627 287.105 311.12 287.105 312.96V313.08H298.065ZM307.608 325C307.341 325 307.114 324.92 306.928 324.76C306.768 324.573 306.688 324.347 306.688 324.08V297.52C306.688 297.253 306.768 297.04 306.928 296.88C307.114 296.693 307.341 296.6 307.608 296.6H309.488C309.754 296.6 309.968 296.693 310.128 296.88C310.314 297.04 310.408 297.253 310.408 297.52V324.08C310.408 324.347 310.314 324.573 310.128 324.76C309.968 324.92 309.754 325 309.488 325H307.608ZM324.894 325.4C321.961 325.4 319.681 324.573 318.054 322.92C316.454 321.267 315.601 319.067 315.494 316.32L315.454 314.6L315.494 312.88C315.601 310.16 316.467 307.973 318.094 306.32C319.721 304.64 321.987 303.8 324.894 303.8C327.801 303.8 330.067 304.64 331.694 306.32C333.321 307.973 334.187 310.16 334.294 312.88C334.321 313.173 334.334 313.747 334.334 314.6C334.334 315.453 334.321 316.027 334.294 316.32C334.187 319.067 333.321 321.267 331.694 322.92C330.094 324.573 327.827 325.4 324.894 325.4ZM324.894 322.32C326.574 322.32 327.894 321.787 328.854 320.72C329.841 319.653 330.374 318.12 330.454 316.12C330.481 315.853 330.494 315.347 330.494 314.6C330.494 313.853 330.481 313.347 330.454 313.08C330.374 311.08 329.841 309.547 328.854 308.48C327.894 307.413 326.574 306.88 324.894 306.88C323.214 306.88 321.881 307.413 320.894 308.48C319.907 309.547 319.387 311.08 319.334 313.08L319.294 314.6L319.334 316.12C319.387 318.12 319.907 319.653 320.894 320.72C321.881 321.787 323.214 322.32 324.894 322.32ZM340.303 332.6C340.036 332.6 339.809 332.507 339.623 332.32C339.463 332.16 339.383 331.947 339.383 331.68V305.12C339.383 304.853 339.463 304.64 339.623 304.48C339.809 304.293 340.036 304.2 340.303 304.2H342.143C342.409 304.2 342.623 304.293 342.783 304.48C342.969 304.64 343.063 304.853 343.063 305.12V306.88C344.556 304.827 346.743 303.8 349.623 303.8C352.423 303.8 354.516 304.68 355.903 306.44C357.316 308.2 358.076 310.467 358.183 313.24C358.209 313.533 358.223 313.987 358.223 314.6C358.223 315.213 358.209 315.667 358.183 315.96C358.076 318.707 357.316 320.973 355.903 322.76C354.489 324.52 352.396 325.4 349.623 325.4C346.849 325.4 344.689 324.4 343.143 322.4V331.68C343.143 331.947 343.063 332.16 342.903 332.32C342.743 332.507 342.529 332.6 342.263 332.6H340.303ZM348.783 322.16C350.676 322.16 352.049 321.573 352.903 320.4C353.783 319.227 354.263 317.68 354.343 315.76C354.369 315.493 354.383 315.107 354.383 314.6C354.383 309.56 352.516 307.04 348.783 307.04C346.943 307.04 345.556 307.653 344.623 308.88C343.716 310.08 343.223 311.52 343.143 313.2L343.103 314.72L343.143 316.28C343.196 317.853 343.703 319.227 344.663 320.4C345.623 321.573 346.996 322.16 348.783 322.16ZM371.491 325.4C368.744 325.4 366.544 324.56 364.891 322.88C363.264 321.173 362.371 318.853 362.211 315.92L362.171 314.56L362.211 313.24C362.398 310.36 363.304 308.067 364.931 306.36C366.584 304.653 368.758 303.8 371.451 303.8C374.411 303.8 376.704 304.747 378.331 306.64C379.958 308.507 380.771 311.04 380.771 314.24V314.92C380.771 315.187 380.678 315.413 380.491 315.6C380.331 315.76 380.118 315.84 379.851 315.84H366.011V316.2C366.091 317.933 366.611 319.413 367.571 320.64C368.558 321.84 369.851 322.44 371.451 322.44C372.678 322.44 373.678 322.2 374.451 321.72C375.251 321.213 375.838 320.693 376.211 320.16C376.451 319.84 376.624 319.653 376.731 319.6C376.864 319.52 377.091 319.48 377.411 319.48H379.371C379.611 319.48 379.811 319.547 379.971 319.68C380.131 319.813 380.211 320 380.211 320.24C380.211 320.827 379.838 321.533 379.091 322.36C378.371 323.187 377.344 323.907 376.011 324.52C374.704 325.107 373.198 325.4 371.491 325.4ZM376.971 313.08V312.96C376.971 311.12 376.464 309.627 375.451 308.48C374.464 307.307 373.131 306.72 371.451 306.72C369.771 306.72 368.438 307.307 367.451 308.48C366.491 309.627 366.011 311.12 366.011 312.96V313.08H376.971ZM386.474 325C386.207 325 385.98 324.92 385.794 324.76C385.634 324.573 385.554 324.347 385.554 324.08V305.16C385.554 304.893 385.634 304.667 385.794 304.48C385.98 304.293 386.207 304.2 386.474 304.2H388.314C388.58 304.2 388.807 304.293 388.994 304.48C389.18 304.667 389.274 304.893 389.274 305.16V306.92C390.367 305.107 392.234 304.2 394.874 304.2H396.434C396.7 304.2 396.914 304.293 397.074 304.48C397.26 304.64 397.354 304.853 397.354 305.12V306.76C397.354 307.027 397.26 307.24 397.074 307.4C396.914 307.56 396.7 307.64 396.434 307.64H394.034C392.594 307.64 391.46 308.067 390.634 308.92C389.807 309.747 389.394 310.88 389.394 312.32V324.08C389.394 324.347 389.3 324.573 389.114 324.76C388.927 324.92 388.7 325 388.434 325H386.474Z" fill="black"/>
<path fill-rule="evenodd" clip-rule="evenodd" d="M610.167 326.963C605.471 326.738 607.36 318.579 607.697 315.582C611.414 304.638 610.54 292.698 612.002 281.226C612.913 270.518 614.083 259.843 615.068 249.142C617.001 227.422 630.886 183.204 646.73 176.093C648.726 167.393 656.97 159.272 667.4 159.272C674.514 150.907 683.076 145.019 694.059 146.208C698.597 146.413 702.999 151.195 707.347 152.118C709.782 152.452 731.391 151.593 735.72 154.147C738.735 155.685 741.457 158.527 740.57 162.145C739.156 166.529 743.551 161.786 752.721 166.464C771.42 177.621 760.246 192.545 759.751 193.008C771.42 209.136 781.619 222.22 786.338 241.934C789.397 256.569 789.052 271.678 791.615 286.389C792.519 291.49 793.908 296.416 795.409 301.369C797.037 307.852 797.829 324.009 798.726 324.154C800.36 324.557 797.781 327.891 796.05 327.893C748.035 335.805 699.265 328.221 650.992 326.982C637.388 326.512 623.77 326.404 610.167 326.963Z" fill="white"/>
<path fill-rule="evenodd" clip-rule="evenodd" d="M682.94 194.431C682.918 194.213 682.621 194.213 682.598 194.431L682.259 197.682C681.847 201.652 681.45 205.615 681.162 209.604C680.803 214.578 680.563 219.551 680.447 224.536C680.044 241.899 679.964 259.27 679.93 276.637C677.566 276.474 675.201 276.318 672.836 276.166C671.231 276.063 669.625 275.964 668.02 275.867L663.927 275.621V275.621L662.242 275.518C661.103 275.448 659.809 275.163 659.013 276.165C658.694 276.566 658.535 277.088 658.832 277.564C659.517 278.662 660.57 278.624 661.761 278.671C662.884 278.717 664.007 278.761 665.131 278.804C667.538 278.897 669.946 278.984 672.354 279.051C674.881 279.122 677.407 279.179 679.933 279.222C679.959 286.553 680.264 293.876 680.594 301.199L680.744 304.495C681.148 313.407 681.582 322.327 682.2 331.228C682.251 331.957 683.288 331.955 683.339 331.228C684.034 321.205 684.493 311.16 684.947 301.123C685.277 293.846 685.469 286.567 685.561 279.287C685.895 279.289 686.229 279.293 686.562 279.295C696.044 279.336 705.524 279.377 715.006 279.288C714.99 279.307 714.974 279.326 714.964 279.35C714.278 280.959 714.212 283.013 714.229 284.74C714.248 286.72 714.517 288.677 714.976 290.603C716.621 297.503 720.865 303.683 725.698 308.792L725.855 308.958C726.995 310.155 728.303 311.357 729.003 312.881C729.718 314.438 729.966 316.258 730.319 317.93L730.36 318.122L731.74 324.452C732.178 326.463 732.303 329.395 733.905 330.846C735.399 332.199 737.379 331.492 738.083 329.75C738.632 328.39 738.085 326.896 737.76 325.536L735.211 314.893C734.792 313.157 734.334 311.41 733.43 309.85C732.505 308.253 731.147 307.096 729.762 305.911C727.139 303.668 724.732 301.1 722.695 298.319C720.66 295.54 718.92 292.476 717.7 289.254C717.09 287.642 716.589 285.966 716.244 284.277C715.916 282.674 715.919 281.014 715.567 279.429C715.543 279.319 715.45 279.244 715.344 279.211C715.369 279.14 715.33 279.044 715.231 279.038L707.476 278.543C700.583 278.101 693.69 277.648 686.803 277.131L685.586 277.043V277.043C685.681 267.33 685.601 257.615 685.424 247.898C685.262 238.987 685.259 230.074 684.992 221.164C684.859 216.742 684.573 212.331 684.255 207.918C683.929 203.405 683.408 198.931 682.94 194.431ZM755.752 246.097C755.835 245.603 755.208 245.296 754.92 245.749C751.618 250.919 750.025 256.535 749.354 262.586C748.762 267.926 748.936 273.343 749.231 278.697C749.546 284.407 749.914 290.116 750.285 295.824L750.856 304.576V304.576L752.288 326.517C752.391 328.087 752.749 329.514 754.11 330.244C754.282 330.387 754.461 330.515 754.671 330.626C755.405 331.016 756.38 330.819 756.805 330.07L756.635 330.181C756.486 330.274 756.653 330.144 757.135 329.793L757.544 329.267V329.267C757.841 328.823 758.031 328.387 758.107 327.86C758.226 327.04 758.072 326.142 758.018 325.318L757.079 310.93V310.93C756.349 299.745 755.497 288.563 754.854 277.372C754.555 272.156 754.345 266.936 754.487 261.711C754.628 256.515 754.895 251.231 755.752 246.097ZM727.187 149.783L727.004 149.752C720.445 148.67 713.313 148.872 707.319 152.013C707.27 152.039 707.292 152.121 707.348 152.118L709.277 152.042C715.385 151.804 721.474 151.664 727.479 153.089L728.094 153.236C730.257 153.76 732.515 154.402 734.252 155.821C735.913 157.177 736.739 159.269 737.534 161.196L737.641 161.45C738.447 163.352 739.468 165.157 741.236 166.346C743.526 167.887 746.28 167.698 748.905 167.907C753.528 168.276 757.308 171.605 759.189 175.678C760.327 178.144 760.813 180.909 760.909 183.606C760.959 184.979 760.966 186.405 760.782 187.769C760.723 188.205 760.18 189.794 759.903 189.756C759.288 189.671 758.726 189.99 758.534 190.478C757.015 189.021 755.453 187.605 753.84 186.24C749.819 182.838 745.488 179.756 740.927 177.106C737.447 175.084 733.775 173.081 729.973 171.567C730.274 171.56 730.571 171.62 730.859 171.768C730.985 171.834 731.11 171.677 731.01 171.573C729.813 170.321 728.378 170.143 726.932 170.477C726.624 170.379 726.315 170.285 726.005 170.195C725.851 170.151 725.774 170.362 725.9 170.444L726.255 170.669V170.669C724.677 171.194 723.129 172.226 721.902 173.04C718.38 175.379 715.28 178.237 712.137 181.043L711.565 181.551C708.799 184.005 705.962 186.39 702.819 188.358C701.173 189.389 699.445 190.342 697.633 191.051C696.078 191.659 693.547 192.042 692.818 193.674C692.171 194.455 692.442 195.452 693.2 195.978C694.478 197.376 697.035 196.473 698.559 195.891C700.395 195.189 702.174 194.345 703.871 193.356C707.166 191.435 710.203 189.046 713.032 186.505C715.988 183.851 718.775 181.032 721.649 178.294C722.895 177.108 724.111 175.895 725.358 174.71L725.985 174.121C726.621 173.528 727.528 172.603 728.498 172.044C730.325 173.126 732.18 174.164 733.99 175.275C736.517 176.825 738.97 178.487 741.384 180.203C746.033 183.507 750.439 187.208 754.528 191.175C762.029 198.45 768.419 206.758 774.002 215.554L774.425 216.225C777.598 221.26 780.598 226.457 782.725 232.02C785.065 238.142 786.203 244.58 786.822 251.078C787.435 257.53 787.642 264.015 788.328 270.461C789.032 277.072 790.418 283.537 791.994 289.99L792.37 291.52C793.796 297.299 795.268 303.078 796.001 308.993C796.393 312.153 796.628 315.356 796.575 318.542C796.522 321.746 796.015 324.879 795.606 328.049C795.449 329.264 796.652 330.277 797.729 330.438C798.967 330.623 800.031 329.838 800.415 328.696C801.615 325.134 801.833 321.197 801.795 317.458C801.758 313.663 801.27 309.893 800.584 306.163C799.234 298.826 797.152 291.641 795.41 284.392C793.875 278.003 792.844 271.602 792.289 265.057C791.712 258.266 791.367 251.453 790.315 244.711C789.277 238.055 787.324 231.698 784.378 225.629C781.696 220.103 778.352 214.902 774.847 209.861C770.59 203.74 765.915 197.915 760.689 192.607C761.158 192.587 761.64 192.436 762.083 192.162C763.437 191.323 764.068 189.681 764.262 188.183C764.715 184.676 764.606 181.016 763.698 177.588C762.234 172.058 758.434 167.144 752.926 165.151C751.508 164.638 750.001 164.451 748.499 164.414C747.073 164.379 745.516 164.563 744.14 164.114C741.95 163.399 741.012 160.837 740.19 158.895L740.152 158.806C739.098 156.332 737.832 154.211 735.549 152.665C733.113 151.017 730.061 150.267 727.187 149.783V149.783ZM664.869 159.569C662.898 158.89 660.434 159.506 658.506 160.1C656.359 160.761 654.375 161.979 652.674 163.425C650.879 164.951 649.396 166.834 648.348 168.938L648.248 169.141C647.29 171.093 646.2 173.772 646.683 175.917C646.697 175.978 646.713 176.036 646.731 176.093C642.82 178.005 639.209 180.4 636.064 183.436C632.402 186.971 629.302 190.993 626.678 195.338C616.256 212.597 614.422 233.325 613.191 253.007L612.884 257.998C612.216 268.774 611.434 279.525 609.402 290.153L609.254 290.92C607.082 302.047 603.973 313.259 604.288 324.674C604.383 328.094 609.471 328.071 609.618 324.674C610.174 311.888 613.177 299.544 615.211 286.958C618.79 264.816 616.997 241.989 622.067 220.068C624.057 211.466 627.139 203.121 631.541 195.442C633.715 191.649 636.203 187.984 639.117 184.711C641.624 181.895 644.23 179.185 647.159 176.818C648.096 177.75 649.966 177.275 650.455 175.917C650.791 174.983 650.693 173.892 650.909 172.914C651.108 172.007 651.384 171.108 651.752 170.253C652.484 168.55 653.559 166.915 654.8 165.537C656.14 164.047 657.681 162.81 659.404 161.788C661.14 160.759 663.038 160.452 664.869 159.7C664.93 159.675 664.936 159.593 664.869 159.569ZM657.211 277.905C657.208 277.815 657.102 277.773 657.036 277.833C656.345 278.465 655.928 279.371 655.419 280.148C654.833 281.044 654.217 281.922 653.571 282.776C652.277 284.489 650.836 286.103 649.384 287.685C648.034 289.156 646.595 290.565 645.102 291.892C643.484 293.332 641.672 294.615 640.202 296.209C637.135 299.534 636.64 304.097 635.993 308.382L635.922 308.846C635.527 311.389 635.174 313.938 634.855 316.492C634.7 317.734 634.546 318.977 634.419 320.222L634.381 320.616C634.268 321.836 634.238 323.072 634.942 324.137C635.697 325.277 637.412 325.676 638.431 324.584C640.183 322.707 639.855 319.372 640.083 316.958C640.271 314.961 640.485 312.967 640.724 310.975L640.845 309.98C641.127 307.714 641.356 305.404 641.878 303.178C642.338 301.218 643.214 299.738 644.652 298.318C646.1 296.887 647.606 295.552 648.943 294.011C650.361 292.377 651.64 290.625 652.792 288.797C653.778 287.233 654.568 285.531 655.292 283.831L655.412 283.548C656.112 281.89 657.266 279.731 657.211 277.905ZM631.917 206.694C631.901 206.463 631.557 206.459 631.552 206.694C631.509 208.683 631.467 210.672 631.425 212.661C631.091 228.687 631.297 244.752 629.678 260.723C628.915 268.254 627.509 275.674 625.883 283.063C625.05 286.843 624.177 290.615 623.347 294.397C622.539 298.082 621.672 301.785 621.03 305.505C620.4 309.16 619.836 312.844 619.582 316.547L619.551 317.03C619.442 318.823 618.921 321.461 619.915 323.051C620.993 324.774 623.055 324.804 624.209 323.16C625.293 321.617 625.024 318.871 625.215 317.03C625.41 315.154 625.616 313.276 625.849 311.405C626.305 307.754 626.906 304.111 627.531 300.485C628.833 292.933 630.721 285.477 632.114 277.937C633.542 270.211 634.557 262.431 634.6 254.565C634.642 246.632 633.797 238.715 633.37 230.8C632.937 222.761 632.444 214.727 631.917 206.694ZM708.128 156.846C707.695 155.397 706.166 154.491 704.675 154.898C703.308 155.271 702.18 156.919 702.714 158.329C703.297 159.867 704.316 161.179 705.175 162.577C705.969 163.869 707.126 164.886 707.934 166.155L707.044 167.109C706.598 167.585 706.151 168.058 705.699 168.523L704.146 170.122C702.936 171.364 701.718 172.6 700.466 173.799C696.785 177.327 693.045 180.738 688.922 183.759C687.984 184.447 687.038 185.13 686.066 185.77L685.703 186.009C685.036 186.443 684.292 186.869 683.486 186.796C681.528 186.617 679.759 184.551 678.413 183.266L678.343 183.199C675.008 180.047 671.92 176.601 669.221 172.895C668.621 172.072 668.041 171.235 667.476 170.388C668.781 168.873 668.469 165.917 668.541 164.08C668.592 162.788 668.596 161.497 668.603 160.204L668.607 159.944C668.622 159.107 668.66 158.305 668.114 157.616C668.082 157.577 668.016 157.578 667.976 157.599C667.227 157.988 666.997 158.641 666.677 159.373L666.644 159.449C666.255 160.327 665.883 161.213 665.506 162.097C665.112 163.022 664.75 163.96 664.384 164.896C664.213 165.331 664.051 165.769 663.892 166.208C663.795 166.489 663.694 166.768 663.591 167.047L663.567 167.068C663.431 167.183 663.315 167.304 663.216 167.429C662.798 167.637 662.467 168.015 662.311 168.57C661.972 169.78 662.673 170.766 663.299 171.726C665.84 175.626 668.737 179.343 671.957 182.714C673.557 184.389 675.24 185.989 676.991 187.507L677.298 187.77C678.871 189.113 680.58 190.386 682.681 190.7C685.141 191.068 687.142 189.853 689.025 188.453L689.213 188.313C690.997 186.971 692.746 185.581 694.441 184.128C697.895 181.165 701.182 177.984 704.098 174.494C706.936 171.099 709.74 167.303 711.489 163.218C711.596 162.969 711.315 162.708 711.096 162.916C710.241 163.724 709.419 164.576 708.607 165.438C708.585 164.169 708.82 162.888 708.689 161.61C708.529 160.057 708.575 158.341 708.128 156.846Z" fill="black"/>
<path fill-rule="evenodd" clip-rule="evenodd" d="M649.935 97.5613C652.134 88.3527 656.941 79.7831 664.638 72.8573C687.798 50.1104 730.331 62.457 730.139 96.7349C730.969 100.739 731.307 104.855 731.031 108.938C730.918 110.68 730.159 113.111 731.178 114.679C733.479 117.613 734.815 119.775 734.033 123.676C733.378 127.083 731.045 129.497 727.895 130.78C726.006 131.318 724.214 132.491 723.514 134.279C719.309 141.926 716.194 148.287 709.566 153.499C707.855 154.84 690.312 162.888 684.532 162.888C667.61 162.888 646.282 156.798 645.928 138.021C645.866 133.896 646.595 129.724 647.052 125.632C648.164 116.295 647.772 106.619 649.935 97.5613Z" fill="white"/>
<path fill-rule="evenodd" clip-rule="evenodd" d="M650.316 92.9555C650.31 92.8416 650.146 92.816 650.114 92.9285C649.485 95.1453 649.129 97.4037 648.637 99.6551C648.163 101.824 647.716 103.999 647.344 106.186C646.641 110.315 646.049 114.454 645.499 118.605L645.362 119.643C644.405 126.945 642.825 134.553 644.207 141.899C645.386 148.166 649.339 153.218 654.434 156.922C659.258 160.428 665.106 162.679 670.913 163.958C677.146 165.332 684.534 165.741 689.605 161.201C691.636 159.383 688.868 155.776 686.666 157.416C681.494 161.268 674.915 160.133 669.08 158.6L668.903 158.553C663.781 157.198 658.625 155.144 654.559 151.679C650.064 147.847 647.841 142.529 647.584 136.697C647.44 133.421 647.748 130.148 648.079 126.89L648.116 126.528C648.497 122.803 648.896 119.08 649.265 115.353C649.601 111.955 649.891 108.537 650.045 105.124L650.116 103.402C650.265 99.9315 650.466 96.4098 650.316 92.9555ZM710.968 64.1152C702.553 59.7629 692.881 58.2051 683.515 59.6658C674.512 61.0701 666.249 65.6853 660.073 72.303C657.057 75.5341 654.381 79.2715 652.67 83.3545C651.821 85.3829 651.156 87.4989 650.801 89.672C650.619 90.7893 650.44 91.9468 650.406 93.0795C650.374 94.1282 650.684 95.1117 650.648 96.1778C650.642 96.3446 650.899 96.3767 650.938 96.2169C651.231 95.0282 651.936 94.1294 652.378 93.0003C652.708 92.1573 653.083 91.3342 653.465 90.5137L653.793 89.8106C654.745 87.767 655.883 85.8074 657.008 83.8549C659.275 79.9222 662.183 76.3482 665.588 73.3324C671.567 68.0375 679.238 64.6197 687.243 64.0042C695.553 63.3651 703.981 65.3327 711.077 69.6911C718.173 74.0493 723.539 80.8241 726.324 88.6245C727.73 92.5608 728.506 96.6622 728.687 100.832C728.778 102.943 728.693 105.072 728.544 107.179L728.47 108.183C728.383 109.388 728.324 110.588 728.505 111.764C727.225 111.367 725.883 111.203 724.537 111.399C722.536 111.691 721.341 112.506 720.443 114.281C720.396 114.374 720.49 114.467 720.583 114.421C721.747 113.844 723.629 114.148 724.862 114.45C726.144 114.765 727.299 115.312 728.389 116.052C730.405 117.42 731.985 119.541 732.373 121.973C732.747 124.323 731.776 126.702 730.145 128.387C729.305 129.254 728.302 130.004 727.178 130.471C725.814 131.039 724.464 131.021 723.258 131.958C722.512 132.537 722.692 133.528 723.198 134.17C720.653 136.943 718.395 139.977 715.85 142.76C714.67 144.05 713.5 145.342 712.37 146.674L711.948 147.175C710.819 148.529 709.023 149.958 708.507 151.66C708.186 152.719 709.327 154.104 710.481 153.621C712.251 152.881 713.515 150.955 714.711 149.478L714.788 149.382C716.043 147.851 717.156 146.235 718.174 144.541L718.509 143.983C720.35 140.908 722.175 137.718 723.348 134.34C723.426 134.419 723.508 134.491 723.594 134.552C725.285 135.747 727.744 134.828 729.432 134.052C731.027 133.32 732.488 132.219 733.628 130.891C736.105 128.004 737.247 124.265 736.42 120.518C735.719 117.344 733.504 114.256 730.601 112.651C731.941 111.118 732.496 109.052 732.865 107.032C733.337 104.454 733.431 101.812 733.303 99.1969C733.047 93.9892 731.698 88.8558 729.613 84.087C725.881 75.5544 719.285 68.417 710.968 64.1152ZM728.68 121.054C726.914 120.725 725.268 120.646 723.564 121.388C721.716 122.194 720.416 123.524 719.207 125.083C717.831 126.856 721.357 128.793 722.246 126.439L722.272 126.367C722.51 125.67 722.936 124.996 723.476 124.376C723.638 124.623 723.855 124.84 724.11 124.964C724.418 125.115 724.889 125.011 724.963 124.62C725.045 124.185 724.954 123.659 724.702 123.292L724.667 123.241V123.241C725.893 122.262 727.367 121.546 728.68 121.316C728.811 121.293 728.81 121.078 728.68 121.054Z" fill="black"/>
<path fill-rule="evenodd" clip-rule="evenodd" d="M673.375 146.486C675.008 145.824 676.466 144.72 677.531 143.31C677.901 142.819 677.998 142.301 677.92 141.828C677.832 141.295 677.515 140.813 677.083 140.489C676.649 140.164 676.106 140.004 675.582 140.086C675.126 140.157 674.672 140.405 674.313 140.919L674.238 141.022C673.605 141.873 672.779 142.572 671.839 143.022C670.932 143.456 669.919 143.658 668.869 143.54C666.871 143.316 665.494 142.243 664.031 140.785C663.849 140.601 663.668 140.411 663.485 140.218C663.37 140.044 663.21 139.931 663.033 139.872C662.835 139.807 662.612 139.81 662.408 139.881C662.211 139.95 662.035 140.079 661.917 140.251C661.805 140.415 661.741 140.617 661.762 140.85C661.896 142.36 662.691 143.709 663.82 144.767C665.075 145.943 666.737 146.756 668.302 147.042C670.027 147.356 671.784 147.131 673.375 146.486V146.486ZM667.489 123.181C665.654 124.288 662.858 126.872 664.832 129.618C667.155 132.04 670.5 129.263 672.148 128.008C673.677 127.034 675.394 129.537 673.976 130.674C662.065 139.434 657.232 123.47 666.561 121.878C667.588 121.703 667.969 122.838 667.489 123.181ZM688.833 112.99C688.63 110.491 684.798 109.923 684.417 112.397C684.076 114.612 684.477 116.648 685.482 118.642C686.442 120.548 688.855 119.659 689.037 117.924C689.282 115.598 688.959 114.545 688.833 112.99ZM659.662 111.884C659.128 111.189 658.356 110.714 657.432 110.982C654.545 111.821 655.396 115.893 656.41 117.875C656.961 118.952 658.742 119.225 659.547 118.277C660.859 116.731 661.487 113.644 659.819 112.122C659.774 112.043 659.724 111.964 659.662 111.884ZM685.523 102.053L685.066 101.974C683.655 101.731 681.901 101.498 680.903 102.625C680.373 103.223 680.191 104.334 680.903 104.906C682.154 105.912 683.538 105.522 685.038 105.607C686.275 105.678 687.463 105.881 688.653 106.219C691.266 106.961 693.394 108.315 695.625 109.802C695.918 109.997 696.217 109.625 696.077 109.353C694.789 106.847 692.293 104.788 689.793 103.533C688.459 102.864 686.999 102.308 685.523 102.053ZM662.294 100.93L661.945 101.001C658.146 101.79 653.21 103.366 651.411 107.073C651.342 107.598 651.415 107.71 651.474 107.783L651.493 107.808C651.542 107.87 651.581 107.957 651.809 108.028C651.873 108.013 651.937 107.997 652.002 107.98C652.826 107.766 653.479 107.47 654.11 107.163L654.795 106.828C655.59 106.441 656.392 106.068 657.241 105.792C659.054 105.205 660.919 104.791 662.813 104.57C663.223 104.522 663.618 104.385 663.93 104.149C664.226 103.925 664.452 103.615 664.555 103.203C664.689 102.67 664.65 102.266 664.363 101.785C664.146 101.424 663.836 101.174 663.48 101.03C663.118 100.883 662.705 100.849 662.294 100.93Z" fill="black"/>
<path fill-rule="evenodd" clip-rule="evenodd" d="M662.343 150.199C664.606 148.196 667.142 144.17 670.392 147.356C671.196 148.256 671.522 150.274 672.751 150.669C674.384 151.196 676.002 149.479 676.559 148.162C678.835 140.84 669.424 138.831 664.063 140.014C661.444 141.083 659.515 145.384 659.398 147.628C659.323 149.137 660.608 151.355 662.343 150.199M645.273 138.913C645.295 138.816 645.326 138.728 645.363 138.648C646.364 138.272 647.155 138.655 647.645 139.371C647.629 139.549 647.575 139.729 647.542 139.906C647.919 140.696 648.26 141.674 648.771 142.357C648.872 142.364 648.977 142.354 649.078 142.325C657.56 143.205 653.419 134.388 662.022 132.198C668.673 131.108 680.693 132.357 683.83 139.233C686.304 150.217 698.886 142.564 703.016 136.852C707.424 131.653 710.274 125.3 713.022 119.136C713.602 117.832 715.414 118.765 715.217 120.016C717.757 125.078 717.673 131.157 718.302 136.702C719.372 147.765 720.414 163.279 710.067 170.034C696.586 185.171 662.923 190.513 647.374 176.604C641.991 165.108 642.655 151.084 645.273 138.913" fill="black"/>
<path fill-rule="evenodd" clip-rule="evenodd" d="M680.243 57.2962C692.223 56.3976 704.006 58.7003 715.438 61.4876L716.226 61.6854C722.727 63.3037 729.6 64.7599 735.093 68.2237C742.768 73.3525 746.731 81.5115 750.189 89.0446C753.209 94.6416 751.666 100.953 747.115 104.861C746.641 100.977 745.834 97.2072 744.572 93.4675C744.309 92.8833 744.508 92.6919 743.941 92.6157C743.083 102.694 747.305 110.14 738.951 122.084C735.326 127.719 739.522 131.843 729.286 134.809L729.009 134.901C726.877 135.603 724.548 136.157 722.459 135.765L722.646 135.499C722.837 135.226 722.895 135.093 722.618 134.976C722.625 134.963 722.635 134.949 722.646 134.934C722.87 134.564 723.087 134.189 723.294 133.811C723.378 133.835 723.463 133.853 723.55 133.873C723.493 133.964 723.486 134.056 723.644 134.087C724.207 134.255 724.785 134.323 725.376 134.291L725.503 134.283C726.172 134.247 726.593 134.141 726.969 134.042C727.094 134.024 727.219 134.007 727.342 133.984C728.554 133.75 729.645 131.918 730.475 131.327C739.939 126.637 738.116 113.423 726.45 111.914C726.211 101.861 721.768 83.3871 712.674 73.8084C704.453 64.9976 685.714 64.317 670.1 65.6636C669.872 65.7293 662.985 78.8804 660.325 73.0864C657.916 73.2732 665.036 71.5095 662.625 71.9444C664.356 70.8127 665.778 66.8752 667.8 66.2346C657.45 73.8084 672.966 58.4422 677.429 57.6216C678.353 57.4233 679.29 57.3141 680.243 57.2962Z" fill="#231F20"/>
<path fill-rule="evenodd" clip-rule="evenodd" d="M646.744 124.335C648.379 126.518 651.412 127.214 654.209 126.974C660.242 126.397 662.141 119.59 662.339 114.3C658.293 115.431 662.681 107.424 648.852 106.543C643.977 106.14 645.321 109.065 643.167 111.201C643.211 115.686 643.963 120.56 646.744 124.335M675.478 119.182C679.04 135.752 698.544 131.81 700.593 116.874C698.701 115.547 699.2 112.272 696.849 111.085C693.124 108.721 688.468 108.822 684.238 108.877C678.83 109.246 677.29 111.471 674.512 113.899C674.646 115.52 675.031 117.442 675.478 119.182M639.017 103.799C639.217 103.766 639.417 103.735 639.618 103.706C639.774 103.618 639.957 103.55 640.171 103.509C640.658 103.386 641.141 103.303 641.624 103.259C648.557 101.709 664.593 103.909 665.255 109.786C667.463 110.518 669.373 109.863 671.932 109.928C673.879 101.841 707.549 102.982 709.168 107.858C709.174 107.856 709.18 107.855 709.187 107.853C710.743 107.374 713.036 107.49 714.817 107.414C718.62 107.335 722.427 107.671 726.147 108.468C733.114 109.568 742.622 110.856 737.777 119.498C737.776 119.5 737.775 119.501 737.774 119.503L737.773 119.502C736.938 120.352 735.521 119.668 735.468 118.517C737.097 114.422 733.418 113.931 730.587 112.754C723.543 110.24 716.371 109.891 709.086 110.669C708.538 111.31 707.706 111.869 706.827 112.162C701.956 112.965 704.523 116.554 701.444 117.076C702.01 129.589 686.718 136.419 677.857 128.194C674.32 124.758 673.476 119.668 672.656 115.08C672.222 114.983 671.947 114.747 671.786 114.436C670.742 113.401 670.087 112.446 668.025 112.162C665.962 111.878 664.375 112.448 664.16 112.622C664.106 112.731 664.048 112.839 663.98 112.948C663.886 113.11 663.757 113.239 663.612 113.34C665.648 125.8 655.911 133.68 646.082 127.218C641.81 123.226 640.908 117.116 640.729 111.662C640.15 111.315 639.784 110.642 639.984 109.796C640.261 108.63 639.613 107.621 638.581 107.114C637.241 106.456 637.478 104.052 639.017 103.799" fill="black"/>
</svg>
